<svg aria-hidden="true" style="position: absolute; width: 0; height: 0; overflow: hidden;" version="1.1" xmlns="http://www.w3.org/2000/svg" xmlns:xlink="http://www.w3.org/1999/xlink">
<defs>
<symbol id="icon-logo" viewBox="0 0 35 32">
<path fill="#00cf6a" style="fill: var(--color1, #00cf6a)" d="M31.164 31.5c-0.481-0-0.956-0.079-1.39-0.23s-0.814-0.371-1.114-0.642c-0.927-0.722-8.091-5.8-12.481-8.896-0.304-0.211-0.547-0.464-0.715-0.743s-0.258-0.58-0.264-0.884c-0.006-0.304 0.071-0.607 0.227-0.89s0.389-0.541 0.684-0.758c0.295-0.218 0.647-0.391 1.035-0.511s0.805-0.182 1.227-0.184 0.84 0.055 1.231 0.17c0.391 0.115 0.746 0.284 1.046 0.499 0.031 0.022 3.193 2.252 6.331 4.48l0.983 0.698v-10.843c0-4.217-4.715-7.648-10.511-7.648s-10.511 3.431-10.511 7.648v16.427c0 0.612-0.337 1.199-0.937 1.632s-1.414 0.676-2.262 0.676-1.662-0.243-2.262-0.676c-0.6-0.433-0.937-1.020-0.937-1.632v-16.427c0-6.763 7.585-12.264 16.909-12.264s16.909 5.502 16.909 12.264v16.427c-0 0.612-0.338 1.199-0.938 1.632s-1.414 0.676-2.262 0.676z"></path>
<path fill="#00cf6a" style="fill: var(--color1, #00cf6a)" d="M17.455 14.983c2.019 0 3.656-1.181 3.656-2.638s-1.637-2.638-3.656-2.638-3.656 1.181-3.656 2.638c0 1.457 1.637 2.638 3.656 2.638z"></path>
</symbol>
<symbol id="icon-menu" viewBox="0 0 32 32">
<path fill="none" stroke="#00e676" style="stroke: var(--color1, #00e676)" stroke-linejoin="round" stroke-linecap="round" stroke-miterlimit="4" stroke-width="4" d="M2 4h28M2 16h28M2 28h28"></path>
</symbol>
<symbol id="icon-x-close" viewBox="0 0 32 32">
<path fill="none" stroke="#e8efe9" style="stroke: var(--color1, #e8efe9)" stroke-linejoin="round" stroke-linecap="round" stroke-miterlimit="4" stroke-width="2.4615" d="M1.231 30.769l14.769-14.769 14.769 14.769M30.769 1.231l-14.772 14.769-14.766-14.769"></path>
</symbol>
<symbol id="menu-icon-farm" viewBox="0 0 37 32">
<path fill="#b0f7d5" style="fill: var(--color1, #b0f7d5)" d="M10.007 1.225l-0.316 1.5h2.536l-0.316-1.5h-1.905zM10.284 4.075v1.050h1.35v-1.050h-1.35zM7.981 6.475l-0.583 7.050h1.286l0.45-6h9.791l-0.15-1.050h-10.793zM30.684 8.2v5.595c0.451 0.035 0.901 0.076 1.35 0.125v-5.72h-1.35zM10.386 8.875l-0.349 4.65h0.473c0.75 0 1.466 0.321 2.175 0.798v-5.448h-2.299zM14.034 8.875v6.319l5.85 0.651v-1.597l-0.768-5.373h-5.082zM4.959 14.875c-0.6 0-1.747 0.507-2.803 1.352-0.818 0.654-1.594 1.492-2.156 2.337l1.261 0.315c1.502-1.888 3.816-3.105 6.398-3.105 3.795 0 7.011 2.627 7.919 6.15h1.531c-0.685-1.405-1.731-3.016-2.874-4.342-0.7-0.812-1.43-1.514-2.096-1.995s-1.266-0.713-1.629-0.713h-5.55zM21.234 14.879v8.246h2.411c0.681-2.262 1.965-3.808 3.684-4.589 0.923-0.42 1.949-0.623 3.055-0.643 0.855-0.016 1.758 0.079 2.699 0.265v-2.737c-0.862-0.134-1.881-0.238-2.972-0.315-3.016-0.212-6.462-0.225-8.878-0.226zM34.434 15.69v1.434h1.050v-1.006c-0.298-0.202-0.743-0.345-1.050-0.429zM15.245 16.688c0.004 0.005 0.008 0.009 0.012 0.014 1.5 1.739 2.838 3.869 3.532 5.654l0.357 0.92h-3.34c0.019 0.223 0.028 0.448 0.028 0.675 0 0.538-0.053 1.065-0.154 1.575h4.204v-8.321l-4.64-0.516zM7.659 17.125c-3.756 0-6.825 3.069-6.825 6.825s3.069 6.825 6.825 6.825c3.756 0 6.825-3.069 6.825-6.825s-3.069-6.825-6.825-6.825zM34.434 18.475v1.050h1.050v-1.050h-1.050zM7.659 18.775c2.862 0 5.175 2.313 5.175 5.175s-2.313 5.175-5.175 5.175c-2.862 0-5.175-2.313-5.175-5.175s2.313-5.175 5.175-5.175zM30.73 19.245c-0.967 0.012-2.053 0.17-2.841 0.519-1.263 0.574-2.226 1.616-2.827 3.36h0.793c1.045-1.704 2.926-2.85 5.055-2.85 0.745 0 1.483 0.143 2.175 0.42v-1.159c-0.839-0.181-1.626-0.279-2.355-0.291zM7.659 20.125c-2.144 0-3.825 1.681-3.825 3.825s1.681 3.825 3.825 3.825c2.144 0 3.825-1.681 3.825-3.825s-1.681-3.825-3.825-3.825zM34.434 20.875v0.575c0.389 0.29 0.742 0.627 1.050 1.002v-1.577h-1.050zM30.909 21.625c-2.512 0-4.575 2.063-4.575 4.575s2.063 4.575 4.575 4.575c2.512 0 4.575-2.063 4.575-4.575s-2.063-4.575-4.575-4.575zM30.909 23.275c1.614 0 2.925 1.311 2.925 2.925s-1.311 2.925-2.925 2.925c-1.614 0-2.925-1.311-2.925-2.925s1.311-2.925 2.925-2.925zM21.234 24.475v1.153l3.751 0.625c-0-0.018-0.001-0.035-0.001-0.053 0-0.599 0.091-1.178 0.26-1.725h-4.010zM30.909 24.625c-0.907 0-1.575 0.668-1.575 1.575s0.668 1.575 1.575 1.575c0.907 0 1.575-0.668 1.575-1.575s-0.668-1.575-1.575-1.575z"></path>
</symbol>
<symbol id="menu-icon-market" viewBox="0 0 37 32">
<path fill="#b0f7d5" style="fill: var(--color1, #b0f7d5)" d="M9.575 0c-1.424 0-2.4 0-3.271 0.198-0.902 0.207-1.741 0.571-2.464 1.067s-1.313 1.115-1.732 1.814c-0.404 0.673-0.594 1.475-0.873 2.645l-1.102 4.611c-0.195 0.808-0.176 1.643 0.055 2.444s0.67 1.551 1.285 2.195v4.086c0 2.736 0 4.903 0.272 6.598 0.281 1.744 0.871 3.157 2.201 4.271 1.33 1.113 3.017 1.607 5.102 1.843 2.025 0.228 4.613 0.228 7.879 0.228h1.979c3.268 0 5.856 0 7.881-0.228 2.084-0.235 3.771-0.729 5.102-1.843 1.33-1.115 1.92-2.527 2.201-4.271 0.272-1.697 0.272-3.862 0.272-6.598v-4.084c0.615-0.645 1.053-1.394 1.285-2.196s0.25-1.636 0.054-2.445l-1.102-4.611c-0.277-1.17-0.469-1.972-0.871-2.645-0.419-0.7-1.009-1.318-1.733-1.815s-1.563-0.86-2.465-1.067c-0.869-0.198-1.845-0.198-3.271-0.198h-16.684zM29.062 17.116c0.905 0.001 1.801-0.149 2.635-0.444v2.304c0 2.838-0.004 4.855-0.249 6.385-0.24 1.496-0.692 2.359-1.444 2.989s-1.783 1.008-3.573 1.209c-0.908 0.094-1.82 0.151-2.734 0.17v-4.102c0-0.655 0-1.22-0.050-1.682-0.053-0.491-0.171-0.976-0.487-1.433-0.351-0.509-0.855-0.932-1.463-1.227-0.546-0.263-1.125-0.362-1.712-0.406-0.551-0.042-1.227-0.042-2.009-0.042h-0.116c-0.782 0-1.456 0-2.009 0.042-0.587 0.045-1.164 0.143-1.71 0.406-0.608 0.294-1.114 0.717-1.465 1.227-0.315 0.457-0.432 0.942-0.485 1.432-0.050 0.464-0.050 1.028-0.050 1.682v4.103c-0.915-0.019-1.829-0.075-2.738-0.17-1.787-0.201-2.818-0.579-3.57-1.209-0.754-0.63-1.204-1.493-1.444-2.99-0.247-1.529-0.249-3.545-0.249-6.384v-2.304c1.421 0.503 3.004 0.584 4.487 0.23s2.778-1.12 3.67-2.174c0.646 0.741 1.492 1.343 2.469 1.758s2.057 0.631 3.153 0.629c1.095 0.001 2.176-0.214 3.153-0.629s1.823-1.017 2.469-1.758c0.626 0.738 1.453 1.34 2.414 1.756s2.026 0.632 3.108 0.632zM14.807 29.764v-4.090c0-0.716 0.002-1.179 0.039-1.529 0.036-0.335 0.098-0.458 0.139-0.518 0.117-0.169 0.286-0.31 0.489-0.408 0.073-0.036 0.217-0.088 0.619-0.117 0.418-0.033 0.971-0.033 1.826-0.033 0.609-0.009 1.218 0.001 1.826 0.033 0.4 0.031 0.546 0.082 0.619 0.117 0.202 0.098 0.37 0.239 0.487 0.408 0.043 0.061 0.105 0.183 0.14 0.518 0.037 0.35 0.039 0.813 0.039 1.529v4.090c-0.692 0.003-1.429 0.003-2.222 0.003h-1.778c-0.793 0-1.532 0-2.222-0.003zM11.999 2.233h0.004l-1.012 8.473-0.007 0.063-0.123 1.021c-0.052 0.466-0.217 0.917-0.484 1.328s-0.632 0.771-1.072 1.059c-0.44 0.288-0.945 0.499-1.485 0.618s-1.103 0.145-1.656 0.076c-0.552-0.069-1.082-0.232-1.557-0.479s-0.884-0.571-1.204-0.955c-0.32-0.384-0.542-0.818-0.654-1.276s-0.112-0.931 0.002-1.388l1.063-4.45c0.332-1.393 0.459-1.872 0.681-2.243 0.251-0.42 0.606-0.79 1.039-1.088s0.937-0.516 1.478-0.64c0.476-0.109 1.065-0.119 2.761-0.119h2.226zM13.636 10.977l1.045-8.744h6.475l1.038 8.695c0.058 0.498-0.008 1-0.195 1.475s-0.489 0.912-0.889 1.283c-0.399 0.371-0.887 0.669-1.432 0.874s-1.134 0.312-1.732 0.316c-0.597 0.003-1.188-0.097-1.736-0.296s-1.040-0.491-1.446-0.857c-0.406-0.367-0.716-0.8-0.91-1.273s-0.269-0.974-0.219-1.472zM28.825 2.352c0.541 0.124 1.045 0.342 1.479 0.64s0.788 0.668 1.040 1.088c0.22 0.371 0.347 0.85 0.681 2.243l1.061 4.45c0.111 0.457 0.11 0.928-0.004 1.385s-0.337 0.889-0.656 1.271c-0.319 0.382-0.729 0.706-1.202 0.951s-1.002 0.408-1.553 0.477c-0.551 0.069-1.113 0.043-1.652-0.075s-1.043-0.328-1.482-0.615-0.804-0.646-1.072-1.055c-0.268-0.409-0.434-0.859-0.487-1.323l-1.143-9.555h2.229c1.696 0 2.284 0.010 2.761 0.119z"></path>
</symbol>
<symbol id="menu-icon-home" viewBox="0 0 30 32">
<path fill="#d9fbea" style="fill: var(--color2, #d9fbea); stroke: var(--color2, #d9fbea)" stroke="#d9fbea" stroke-linejoin="miter" stroke-linecap="butt" stroke-miterlimit="4" stroke-width="1.6" d="M13.285 1.484c0.54-0.442 1.217-0.684 1.915-0.684s1.375 0.242 1.915 0.684l10.54 8.594c0.359 0.294 0.647 0.664 0.845 1.084s0.3 0.878 0.299 1.341v15.588c0 1.718-1.37 3.11-3.060 3.11h-4.28c-1.69 0-3.060-1.392-3.060-3.11v-7.381c0-0.573-0.456-1.037-1.020-1.037h-4.36c-0.563 0-1.020 0.464-1.020 1.037v7.381c0 1.718-1.37 3.11-3.060 3.11h-4.28c-1.69 0-3.060-1.392-3.060-3.11v-15.588c-0.001-0.464 0.101-0.922 0.299-1.341s0.487-0.789 0.845-1.083l10.54-8.594zM15.838 3.101c-0.18-0.147-0.406-0.228-0.638-0.228s-0.458 0.081-0.638 0.228l-10.54 8.593c-0.12 0.098-0.216 0.222-0.282 0.361s-0.1 0.293-0.1 0.447v15.588c0 0.573 0.456 1.037 1.020 1.037h4.28c0.563 0 1.020-0.464 1.020-1.037v-7.381c0-1.718 1.37-3.11 3.060-3.11h4.36c1.69 0 3.060 1.392 3.060 3.11v7.381c0 0.573 0.456 1.037 1.020 1.037h4.28c0.563 0 1.020-0.464 1.020-1.037v-15.588c0-0.155-0.034-0.307-0.1-0.447s-0.162-0.263-0.282-0.361l-10.54-8.594z"></path>
</symbol>
<symbol id="icon-cart-icon" viewBox="0 0 32 32">
<path fill="#fff" style="fill: var(--color5, #fff)" d="M14.394 15.471c0-0.434 0.339-0.793 0.748-0.793h1.247v-1.322c0-0.434 0.339-0.793 0.748-0.793s0.748 0.36 0.748 0.793v1.322h1.247c0.409 0 0.748 0.36 0.748 0.793s-0.339 0.793-0.748 0.793h-1.247v1.322c0 0.434-0.339 0.793-0.748 0.793s-0.748-0.36-0.748-0.793v-1.322h-1.247c-0.409 0-0.748-0.36-0.748-0.793zM15.252 23.14c0 0.878-0.668 1.587-1.496 1.587s-1.496-0.709-1.496-1.587 0.668-1.587 1.496-1.587c0.828 0 1.496 0.709 1.496 1.587zM21.734 23.14c0 0.878-0.668 1.587-1.496 1.587s-1.496-0.709-1.496-1.587 0.668-1.587 1.496-1.587c0.828 0 1.496 0.709 1.496 1.587zM24.706 11.43l-1.995 8.463c-0.040 0.172-0.134 0.326-0.266 0.435s-0.295 0.168-0.462 0.168h-9.974c-0.359 0-0.668-0.275-0.738-0.656l-1.885-10.98h-1.366c-0.409 0-0.748-0.36-0.748-0.793s0.339-0.793 0.748-0.793h1.995c0.359 0 0.668 0.275 0.738 0.656l0.429 2.518h12.796c0.113 0.001 0.225 0.028 0.327 0.081s0.191 0.129 0.261 0.224c0.070 0.095 0.119 0.205 0.143 0.322s0.023 0.239-0.003 0.356zM23.021 12.033h-11.569l1.177 6.876h8.767l1.616-6.876h0.010z"></path>
</symbol>
<symbol fill="none" xmlns="http://www.w3.org/2000/svg" viewBox="0 0 400 803" id="Subtract">
<path opacity="0.25" fill-rule="evenodd" clip-rule="evenodd" d="M304 3C304 30.6142 259.228 53 204 53C148.772 53 104 30.6142 104 3C104 1.39978 102.77 0 101.17 0H12C5.37258 0 0 5.37258 0 12V791C0 797.627 5.37259 803 12 803H89C95.6274 803 100.858 797.399 103.699 791.412C114.153 769.385 153.75 753 201 753C248.25 753 287.847 769.385 298.301 791.412C301.142 797.399 306.373 803 313 803H388C394.627 803 400 797.627 400 791V12C400 5.37258 394.627 0 388 0H306.83C305.23 0 304 1.39978 304 3ZM4 129C4 122.373 9.37258 117 16 117H92C98.6274 117 104 122.373 104 129V205C104 211.627 98.6274 217 92 217H16C9.37258 217 4 211.627 4 205V129ZM395 279C395 272.373 389.627 267 383 267H307C300.373 267 295 272.373 295 279V355C295 361.627 300.373 367 307 367H383C389.627 367 395 361.627 395 355V279ZM5 426C5 419.373 10.3726 414 17 414H93C99.6274 414 105 419.373 105 426V502C105 508.627 99.6274 514 93 514H17C10.3726 514 5 508.627 5 502V426ZM396 600C396 593.373 390.627 588 384 588H308C301.373 588 296 593.373 296 600V676C296 682.627 301.373 688 308 688H384C390.627 688 396 682.627 396 676V600Z" fill="#B0F7D5"></path>
</symbol>
<symbol fill="none" xmlns="http://www.w3.org/2000/svg" viewBox="0 0 50 50" id="plant">
<rect width="50" height="50" rx="25" fill="#B0F7D5"></rect>
<path d="M36.9633 14.3979C36.9465 14.046 36.8262 13.714 36.6252 13.4647C36.4242 13.2155 36.1564 13.0663 35.8726 13.0455C30.7162 12.6687 26.5625 14.6499 24.7585 18.3423C23.5836 20.7423 23.5429 23.6427 24.6172 26.4184C24.1577 27.1447 23.7909 27.9541 23.5294 28.8184L22.5906 27.6544C23.2865 25.6419 23.2129 23.5611 22.3584 21.8115C21.0054 19.0431 17.9239 17.5599 14.1167 17.8335C13.8329 17.8543 13.5651 18.0035 13.3641 18.2528C13.1631 18.502 13.0428 18.834 13.026 19.1859C12.8053 23.9067 14.0015 27.7276 16.2361 29.4052C16.994 29.9779 17.8648 30.2798 18.7524 30.2776C19.5091 30.2699 20.2566 30.071 20.9493 29.6932L23.0639 32.32V35.56C23.0639 35.9419 23.1862 36.3082 23.404 36.5782C23.6218 36.8483 23.9172 37 24.2252 37C24.5332 37 24.8286 36.8483 25.0464 36.5782C25.2642 36.3082 25.3866 35.9419 25.3866 35.56V32.0212C25.3842 30.734 25.7052 29.4778 26.305 28.4272C27.276 28.9997 28.3356 29.3044 29.4107 29.32C30.5677 29.3234 31.703 28.9305 32.6915 28.1848C35.6694 25.942 37.2672 20.7903 36.9633 14.3979ZM17.4391 26.9416C16.1626 25.9816 15.3893 23.6463 15.3264 20.6859C17.7139 20.7639 19.5982 21.7239 20.3715 23.3055C20.6739 23.9154 20.7979 24.6357 20.7228 25.3455L19.6263 23.9811C19.4081 23.7106 19.1122 23.5586 18.8037 23.5586C18.4951 23.5586 18.1992 23.7106 17.981 23.9811C17.7629 24.2517 17.6403 24.6186 17.6403 25.0011C17.6403 25.3837 17.7629 25.7506 17.981 26.0212L19.0785 27.382C18.5076 27.4694 17.9296 27.3141 17.4391 26.9416ZM31.4885 25.72C30.4568 26.494 29.2626 26.6404 28.0229 26.1712L31.6279 21.7023C31.846 21.4318 31.9686 21.0649 31.9686 20.6823C31.9686 20.2998 31.846 19.9328 31.6279 19.6623C31.4097 19.3918 31.1138 19.2398 30.8053 19.2398C30.4967 19.2398 30.2008 19.3918 29.9826 19.6623L26.3776 24.1311C26.0031 22.5999 26.1211 21.1131 26.7415 19.8399C27.9774 17.3091 30.903 15.8715 34.6774 15.8799C34.6909 20.5599 33.5296 24.1815 31.4885 25.72Z" fill="#005129"></path>
</symbol>
<symbol fill="none" xmlns="http://www.w3.org/2000/svg" viewBox="0 0 1600 800" id="Subtract_dt">
<path fill-rule="evenodd" clip-rule="evenodd" d="M0 16C0 7.16344 7.16343 0 16 0H1584C1592.84 0 1600 7.16343 1600 16V784C1600 792.837 1592.84 800 1584 800H16C7.16344 800 0 792.837 0 784V16ZM51.2543 103.432C51.2543 94.5952 58.4178 87.4318 67.2543 87.4318H581.017C589.854 87.4318 597.017 94.5952 597.017 103.432V239.009C597.017 247.845 604.18 255.009 613.017 255.009H913.22C922.057 255.009 929.22 262.172 929.22 271.009V414.025C929.22 579.711 794.906 714.025 629.22 714.025H446.915C438.079 714.025 430.915 706.862 430.915 698.025V601.064C430.915 592.227 423.752 585.064 414.915 585.064H67.2543C58.4177 585.064 51.2543 577.9 51.2543 569.064V103.432Z" fill="#B0F7D5"></path>
</symbol>
<symbol fill="none" xmlns="http://www.w3.org/2000/svg" viewBox="0 0 420 300" id="Subtract-farm">
    <path fill-rule="evenodd" clip-rule="evenodd" d="M0 70.5126C0 65.1991 3.49437 60.5182 8.58867 59.0077L205.925 0.495097C208.146 -0.163348 210.51 -0.165063 212.731 0.490161L411.169 59.0163C416.272 60.5213 419.775 65.2062 419.775 70.5262V288C419.775 294.627 414.402 300 407.775 300H12C5.3726 300 0 294.627 0 288V70.5126ZM19.5894 284.979V66.7041H59.328V284.979H19.5894ZM66.0444 284.979V66.7041H172.387V284.979H66.0444ZM200.652 284.979H219.962V66.7041H200.652V153.125C211.203 154.396 219.425 164.596 219.425 176.991C219.425 189.386 211.203 199.587 200.652 200.858V284.979ZM196.175 66.7041V153.128C185.635 154.411 177.425 164.605 177.425 176.991C177.425 189.377 185.635 199.572 196.175 200.855V284.979H176.865V66.7041H196.175ZM354.01 284.979H224.44V66.7041H354.01V284.979ZM404.077 289.453C403.627 289.851 403.035 290.093 402.386 290.093H15.7098C15.2604 290.093 14.8381 289.977 14.4712 289.773H12.873V62.8691H13.4951C13.9372 62.1049 14.7634 61.5907 15.7098 61.5907H402.386C403.194 61.5907 403.914 61.965 404.382 62.5495H405.223V289.453H404.077ZM398.506 284.979V66.7041H360.727V284.979H398.506Z" fill="#D9FBEA" fill-opacity="0.95"></path>
  </symbol>

  <symbol fill="none" xmlns="http://www.w3.org/2000/svg" viewBox="0 0 42 48" id="Ellipse">
    <g filter="url(#filter0_d_196_616)">
      <ellipse cx="21" cy="24" rx="21" ry="24" fill="#D9FBEA"></ellipse>
      <ellipse cx="21" cy="24" rx="21" ry="24" stroke="#005129" stroke-width="2"></ellipse>
    </g>
    <defs>
      <filter id="filter0_d_196_616" x="0" y="0" width="134" height="140" filterUnits="userSpaceOnUse" color-interpolation-filters="sRGB">
        <feFlood flood-opacity="0" result="BackgroundImageFix"></feFlood>
        <feColorMatrix in="SourceAlpha" type="matrix" values="0 0 0 0 0 0 0 0 0 0 0 0 0 0 0 0 0 0 127 0" result="hardAlpha"></feColorMatrix>
        <feMorphology radius="20" operator="dilate" in="SourceAlpha" result="effect1_dropShadow_196_616"></feMorphology>
        <feOffset dx="4" dy="4"></feOffset>
        <feGaussianBlur stdDeviation="12.5"></feGaussianBlur>
        <feComposite in2="hardAlpha" operator="out"></feComposite>
        <feColorMatrix type="matrix" values="0 0 0 0 0.0444167 0 0 0 0 0.170833 0 0 0 0 0.0128125 0 0 0 0.1 0"></feColorMatrix>
        <feBlend mode="normal" in2="BackgroundImageFix" result="effect1_dropShadow_196_616"></feBlend>
        <feBlend mode="normal" in="SourceGraphic" in2="effect1_dropShadow_196_616" result="shape"></feBlend>
      </filter>
    </defs>
  </symbol>
  <symbol fill="none" xmlns="http://www.w3.org/2000/svg" viewBox="0 0 1500 941" id="Subtract-farm-dt">
    <path fill-rule="evenodd" clip-rule="evenodd" d="M0 203.498C0 198.032 3.69374 193.257 8.98424 191.883L744.992 0.781453C746.965 0.269267 749.035 0.267926 751.009 0.777558L1491 191.892C1496.3 193.26 1500 198.039 1500 203.511V928.33C1500 934.958 1494.63 940.33 1488 940.33H12C5.37261 940.33 0 934.958 0 928.33V203.498ZM70 893.33V210.33H212V893.33H70ZM236 893.33V210.33H616V893.33H236ZM717 893.33H786V210.33H717V480.752C754.66 484.745 784 516.611 784 555.33C784 594.049 754.66 625.915 717 629.908V893.33ZM701 210.33V480.752C663.34 484.745 634 516.611 634 555.33C634 594.049 663.34 625.915 701 629.908V893.33H632V210.33H701ZM1265 893.33H802V210.33H1265V893.33ZM1444.29 907.33C1442.88 908.575 1441.03 909.33 1439 909.33H55C53.5939 909.33 52.2724 908.967 51.1242 908.33H46V198.33H48.0703C49.4535 195.939 52.0389 194.33 55 194.33H1439C1441.53 194.33 1443.78 195.501 1445.25 197.33H1448V907.33H1444.29ZM1424 893.33V210.33H1289V893.33H1424Z" fill="#D9FBEA" fill-opacity="0.95"></path>
  </symbol>
  <symbol fill="none" xmlns="http://www.w3.org/2000/svg" viewBox="0 0 150 150" id="Ellipse-dt">
    <g filter="url(#filter0_d_153_2172)">
      <circle cx="75" cy="75" r="75" fill="#0B270D"></circle>
      <circle cx="75" cy="75" r="75" stroke="#005129" stroke-width="2"></circle>
    </g>
    <defs>
      <filter id="filter0_d_153_2172" x="0" y="0" width="242" height="242" filterUnits="userSpaceOnUse" color-interpolation-filters="sRGB">
        <feFlood flood-opacity="0" result="BackgroundImageFix"></feFlood>
        <feColorMatrix in="SourceAlpha" type="matrix" values="0 0 0 0 0 0 0 0 0 0 0 0 0 0 0 0 0 0 127 0" result="hardAlpha"></feColorMatrix>
        <feMorphology radius="20" operator="dilate" in="SourceAlpha" result="effect1_dropShadow_153_2172"></feMorphology>
        <feOffset dx="4" dy="4"></feOffset>
        <feGaussianBlur stdDeviation="12.5"></feGaussianBlur>
        <feComposite in2="hardAlpha" operator="out"></feComposite>
        <feColorMatrix type="matrix" values="0 0 0 0 0.0444167 0 0 0 0 0.170833 0 0 0 0 0.0128125 0 0 0 0.1 0"></feColorMatrix>
        <feBlend mode="normal" in2="BackgroundImageFix" result="effect1_dropShadow_153_2172"></feBlend>
        <feBlend mode="normal" in="SourceGraphic" in2="effect1_dropShadow_153_2172" result="shape"></feBlend>
      </filter>
    </defs>
  </symbol>
  <symbol fill="none" xmlns="http://www.w3.org/2000/svg" viewBox="0 0 32 32" id="Fruit">
    <path fill-rule="evenodd" clip-rule="evenodd" d="M2.38334 8.09973C3.8019 6.59069 5.22046 6.08768 7.11127 7.0937C8.81427 7.99931 9.75056 8.0894 10.6103 8.09879C11.5064 8.0894 12.481 7.99931 14.2551 7.0937C16.2243 6.08768 17.7012 6.59069 19.1791 8.09973C20.9204 9.87904 21.4582 11.7315 21.6415 13.1308C21.6634 13.2434 21.6816 13.356 21.6989 13.4686C21.1111 13.6452 20.5851 13.9921 20.1835 14.4679C19.782 14.9438 19.5219 15.5285 19.4342 16.1523C19.3466 16.7761 19.4351 17.4127 19.6892 17.9862C19.9434 18.5596 20.3524 19.0457 20.8675 19.3865L20.7955 19.577C20.4344 19.3139 20.0241 19.131 19.5907 19.0398C19.1573 18.9486 18.7102 18.9512 18.2778 19.0474C17.8454 19.1436 17.4372 19.3313 17.079 19.5985C16.7208 19.8658 16.4206 20.2068 16.1973 20.5999C15.974 20.993 15.8325 21.4296 15.7819 21.882C15.7313 22.3344 15.7726 22.7927 15.9032 23.2277C16.0339 23.6628 16.2509 24.0651 16.5407 24.4092C16.8305 24.7533 17.1866 25.0316 17.5864 25.2265C17.504 25.3316 17.4198 25.4352 17.3338 25.5371C16.5726 26.3527 15.7065 26.8754 14.7675 26.7158C11.8137 26.2119 11.3214 26.2119 10.8291 26.2119H10.4006C9.92834 26.2119 9.45518 26.2119 6.61897 26.7158C4.34891 27.1175 2.52556 23.1938 1.62119 21.1827C0.198978 18.0267 -0.0845519 14.8012 0.0193786 13.1308C0.195331 11.7306 0.712249 9.87904 2.38334 8.10067V8.09973Z" fill="#005129"></path>
    <path fill-rule="evenodd" clip-rule="evenodd" d="M28.121 9.469C29.1451 9.84723 29.9813 10.6287 30.4456 11.6415C30.91 12.6544 30.9645 13.8156 30.5971 14.8698C30.568 14.9533 30.5288 15.0293 30.4814 15.0978C31.2251 15.7568 31.7149 16.6682 31.8621 17.6669C32.0093 18.6655 31.804 19.6855 31.2836 20.5418C31.0277 20.9617 30.7021 21.332 30.3218 21.6361C30.4041 22.4752 30.2392 23.3205 29.8487 24.062C30.3567 24.3447 30.8011 24.7346 31.1527 25.2063C31.5042 25.678 31.7551 26.2208 31.8888 26.7992C32.0225 27.3775 32.0361 27.9785 31.9287 28.5626C31.8212 29.1468 31.5952 29.701 31.2653 30.189C30.9354 30.677 30.5092 31.0878 30.0144 31.3945C29.5197 31.7013 28.9676 31.897 28.3942 31.969C27.8209 32.0409 27.2393 31.9874 26.6875 31.812C26.1356 31.6366 25.6259 31.3433 25.1918 30.9511C24.4985 31.5363 23.6381 31.8716 22.7421 31.9057C21.8462 31.9398 20.9641 31.6708 20.2307 31.1399C19.4973 30.6091 18.9531 29.8455 18.6812 28.966C18.4093 28.0866 18.4249 27.1397 18.7253 26.2701C17.677 26.2121 16.6901 25.7425 15.9679 24.958C15.2458 24.1735 14.8433 23.1339 14.8433 22.0532C14.8433 20.9725 15.2458 19.9328 15.9679 19.1484C16.6901 18.3639 17.677 17.8943 18.7253 17.8363C18.4987 17.1796 18.4334 16.4754 18.5354 15.7865C18.6373 15.0976 18.9033 14.4454 19.3096 13.888C19.7159 13.3306 20.2498 12.8853 20.8639 12.5919C21.4779 12.2985 22.153 12.1661 22.8288 12.2065C22.8379 12.1436 22.8525 12.0798 22.8744 12.0169C23.242 10.9629 24.0012 10.1024 24.9852 9.62458C25.9691 9.14677 27.097 9.09081 28.121 9.469ZM26.3132 29.4646C26.5579 29.7077 26.8523 29.8912 27.1748 30.0019C27.4974 30.1126 27.8399 30.1476 28.1773 30.1044C28.5147 30.0612 28.8385 29.9408 29.1248 29.752C29.4111 29.5633 29.6528 29.311 29.8321 29.0136C30.0115 28.7162 30.1239 28.3813 30.1612 28.0335C30.1984 27.6856 30.1596 27.3335 30.0476 27.0031C29.9355 26.6726 29.7531 26.3722 29.5136 26.1237C29.2741 25.8753 28.9836 25.6851 28.6635 25.5672C28.6324 25.5558 28.602 25.5426 28.5723 25.5278C27.9661 25.9595 27.2413 26.2279 26.4591 26.2711C26.6113 26.7121 26.6943 27.1889 26.6943 27.6844C26.6943 28.3207 26.5575 28.9231 26.3132 29.4646ZM26.4591 17.8372C27.0927 17.8718 27.7099 18.0574 28.2621 18.3794C28.8142 18.7013 29.2862 19.1508 29.6408 19.6925C29.8568 19.3902 29.9996 19.0392 30.0574 18.6687C30.1247 18.2334 30.0714 17.7874 29.9038 17.3818C29.7362 16.9762 29.461 16.6274 29.1097 16.3754C28.7584 16.1234 28.3452 15.9784 27.9176 15.9569C27.4899 15.9354 27.065 16.0384 26.6915 16.254C26.7128 16.7919 26.6339 17.3299 26.4591 17.8372ZM26.2011 14.4137C27.0497 14.0433 27.9946 13.9772 28.8841 14.226C29.0849 13.6404 29.0519 12.9967 28.7924 12.436C28.533 11.8754 28.0681 11.4435 27.4998 11.2351C26.9314 11.0267 26.306 11.0587 25.7606 11.3242C25.2152 11.5896 24.7943 12.0669 24.5901 12.6513C24.5822 12.6742 24.5734 12.6967 24.5637 12.7189C25.256 13.1106 25.8244 13.6989 26.2011 14.4137ZM22.5917 14.0768C21.9873 14.0768 21.4076 14.324 20.9801 14.764C20.5527 15.204 20.3126 15.8007 20.3126 16.4229C20.3126 17.0452 20.5527 17.6419 20.9801 18.0819C21.4076 18.5219 21.9873 18.7691 22.5917 18.7691C23.1962 18.7691 23.7759 18.5219 24.2034 18.0819C24.6308 17.6419 24.8709 17.0452 24.8709 16.4229C24.8709 15.8007 24.6308 15.204 24.2034 14.764C23.7759 14.324 23.1962 14.0768 22.5917 14.0768ZM18.9451 19.7075C18.3406 19.7075 17.7609 19.9547 17.3334 20.3947C16.906 20.8347 16.6659 21.4314 16.6659 22.0537C16.6659 22.6759 16.906 23.2726 17.3334 23.7126C17.7609 24.1526 18.3406 24.3998 18.9451 24.3998C19.5495 24.3998 20.1293 24.1526 20.5567 23.7126C20.9841 23.2726 21.2242 22.6759 21.2242 22.0537C21.2242 21.4314 20.9841 20.8347 20.5567 20.3947C20.1293 19.9547 19.5495 19.7075 18.9451 19.7075ZM23.9593 22.0537C23.9593 21.4314 24.1994 20.8347 24.6268 20.3947C25.0542 19.9547 25.634 19.7075 26.2384 19.7075C26.8429 19.7075 27.4226 19.9547 27.8501 20.3947C28.2775 20.8347 28.5176 21.4314 28.5176 22.0537C28.5176 22.6759 28.2775 23.2726 27.8501 23.7126C27.4226 24.1526 26.8429 24.3998 26.2384 24.3998C25.634 24.3998 25.0542 24.1526 24.6268 23.7126C24.1994 23.2726 23.9593 22.6759 23.9593 22.0537ZM22.5917 25.3383C21.9873 25.3383 21.4076 25.5854 20.9801 26.0254C20.5527 26.4654 20.3126 27.0622 20.3126 27.6844C20.3126 28.3066 20.5527 28.9034 20.9801 29.3434C21.4076 29.7833 21.9873 30.0305 22.5917 30.0305C23.1962 30.0305 23.7759 29.7833 24.2034 29.3434C24.6308 28.9034 24.8709 28.3066 24.8709 27.6844C24.8709 27.0622 24.6308 26.4654 24.2034 26.0254C23.7759 25.5854 23.1962 25.3383 22.5917 25.3383ZM0.515625 0.000938833H1.54855C4.1377 0.000938833 6.5755 1.19934 8.35509 2.79002C8.93371 3.30503 9.45807 3.88128 9.91951 4.50927V2.40807C9.91951 2.15918 10.0156 1.92048 10.1865 1.74449C10.3575 1.56849 10.5894 1.46962 10.8312 1.46962C11.073 1.46962 11.3049 1.56849 11.4758 1.74449C11.6468 1.92048 11.7429 2.15918 11.7429 2.40807V8.60187C11.743 8.74364 11.712 8.88361 11.652 9.01123C11.5919 9.13884 11.5046 9.25076 11.3964 9.33855V9.38454H11.3344C11.185 9.48695 11.0095 9.54143 10.83 9.5411C10.6505 9.54076 10.4752 9.48562 10.3261 9.38266C8.10164 9.34137 5.86622 8.45078 4.1067 7.02151C2.30524 5.55752 0.937729 3.47416 0.64417 1.05482L0.516537 0L0.515625 0.000938833ZM9.40077 7.42411C9.07804 6.40025 8.31042 5.23563 7.15989 4.20709C5.92001 3.09971 4.35194 2.25604 2.70728 1.97732C3.14762 3.34934 4.05018 4.58529 5.23626 5.54908C6.45152 6.53539 7.92296 7.19982 9.40077 7.42411Z" fill="#005129"></path>
    <path fill-rule="evenodd" clip-rule="evenodd" d="M28.2333 1.07422L28.3993 2.12341C28.8141 4.7539 28.0556 7.4238 26.8148 9.48652C25.595 11.5155 23.7753 13.1653 21.8781 13.4825L20.9783 13.6326L20.8324 12.7073C20.4677 10.394 20.9619 7.91179 22.0759 5.84719C23.1909 3.7826 24.9705 2.0596 27.2424 1.37359L28.2333 1.07422ZM26.689 3.61743C25.4445 4.28561 24.4034 5.40049 23.6695 6.75937C22.9183 8.15204 22.5153 9.75304 22.5381 11.2921C23.468 10.7994 24.4618 9.83281 25.264 8.49833C26.1283 7.06249 26.6853 5.33292 26.6899 3.61837L26.689 3.61743Z" fill="#005129"></path>
  </symbol>
  <symbol fill="none" xmlns="http://www.w3.org/2000/svg" viewBox="0 0 32 32" id="icon-next">
    <rect width="32" height="32" rx="16" fill="#0B270D"></rect>
    <path d="M10.4589 10.2641C10.1651 10.4333 10 10.6627 10 10.902C10 11.1412 10.1651 11.3706 10.4589 11.5398L18.2169 16.0054L10.4589 20.4711C10.1734 20.6413 10.0154 20.8691 10.019 21.1057C10.0226 21.3422 10.1874 21.5685 10.478 21.7358C10.7686 21.903 11.1617 21.9979 11.5726 22C11.9835 22.002 12.3794 21.9111 12.675 21.7468L21.5411 16.6433C21.8349 16.4741 22 16.2447 22 16.0054C22 15.7662 21.8349 15.5368 21.5411 15.3676L12.675 10.2641C12.3811 10.095 11.9825 10 11.5669 10C11.1514 10 10.7528 10.095 10.4589 10.2641Z" fill="#E8EFE9"></path>
  </symbol>
  <symbol fill="none" xmlns="http://www.w3.org/2000/svg" viewBox="0 0 32 32" id="icon-prev">
    <rect x="32" y="32" width="32" height="32" rx="16" transform="rotate(-180 32 32)" fill="#0B270D"></rect>
    <path d="M21.5411 21.7359C21.8349 21.5667 22 21.3373 22 21.098C22 20.8588 21.8349 20.6294 21.5411 20.4602L13.7831 15.9946L21.5411 11.5289C21.8266 11.3587 21.9846 11.1309 21.981 10.8943C21.9774 10.6578 21.8126 10.4315 21.522 10.2642C21.2314 10.097 20.8383 10.0021 20.4274 10C20.0165 9.99798 19.6206 10.0889 19.325 10.2532L10.4589 15.3567C10.1651 15.5259 10 15.7553 10 15.9946C10 16.2338 10.1651 16.4632 10.4589 16.6324L19.325 21.7359C19.6189 21.905 20.0175 22 20.4331 22C20.8486 22 21.2472 21.905 21.5411 21.7359Z" fill="#E8EFE9"></path>
  </symbol>
  <symbol fill="none" xmlns="http://www.w3.org/2000/svg" viewBox="0 0 32 32" id="Crops">
    <path d="M31.9505 1.31385C31.9353 0.987646 31.8247 0.679793 31.6399 0.44874C31.455 0.217686 31.2087 0.0795184 30.9477 0.0604686C24.0452 -0.43955 18.503 2.18388 16.1213 7.0974C14.5477 10.3459 14.5504 14.291 16.0999 18.0545C15.2179 19.3668 14.5733 20.9019 14.2103 22.5546L12.0406 19.8329C13.0835 17.1111 13.0434 14.2743 11.9073 11.9176C10.147 8.28578 6.08365 6.33904 1.03883 6.70905C0.777831 6.7281 0.531519 6.86627 0.346653 7.09732C0.161787 7.32838 0.0512386 7.63623 0.0359969 7.96243C-0.261385 14.2677 1.29754 19.3462 4.20334 21.5463C5.16225 22.2785 6.26415 22.6661 7.38786 22.6663C8.47857 22.6495 9.55231 22.3266 10.5297 21.7213L13.8636 25.8881V30.6666C13.8636 31.0203 13.976 31.3594 14.176 31.6095C14.3761 31.8595 14.6475 32 14.9304 32C15.2134 32 15.4847 31.8595 15.6848 31.6095C15.8849 31.3594 15.9973 31.0203 15.9973 30.6666V25.7514C15.9925 23.6302 16.5701 21.5711 17.6335 19.9179C19.0057 20.8141 20.5275 21.2938 22.0756 21.3179C23.5723 21.324 25.0413 20.8129 26.3203 19.8412C30.2516 16.8678 32.3559 9.94084 31.9505 1.31385ZM5.30352 19.2662C3.25785 17.7178 2.10033 14.0527 2.12834 9.33248C5.90495 9.29248 8.83743 10.7442 10.0763 13.301C10.7231 14.6343 10.8284 16.1894 10.4043 17.7911L7.14915 13.7226C6.94745 13.4831 6.67888 13.3516 6.40069 13.356C6.1225 13.3605 5.8567 13.5006 5.65998 13.7465C5.46325 13.9924 5.35115 14.3246 5.34759 14.6723C5.34403 15.0199 5.44928 15.3556 5.64091 15.6077L8.8961 19.6762C7.61456 20.2062 6.37169 20.0746 5.30352 19.2662ZM25.2148 17.5628C23.4278 18.9145 21.3275 19.0178 19.1938 17.8961L26.3536 8.9458C26.5452 8.69371 26.6505 8.35803 26.6469 8.01034C26.6434 7.66264 26.5313 7.33044 26.3345 7.08456C26.1378 6.83868 25.872 6.69858 25.5938 6.69413C25.3156 6.68968 25.0471 6.82123 24.8454 7.06073L17.6842 15.9994C16.7827 13.3326 16.8641 10.7059 17.9509 8.47412C19.8099 4.64064 24.2186 2.50389 29.8635 2.6689C29.9915 9.7225 28.2846 15.2394 25.2148 17.5628Z" fill="#E6FDF1"></path>
  </symbol>
  <symbol fill="none" xmlns="http://www.w3.org/2000/svg" viewBox="0 0 34 34" id="Vegetables">
    <path d="M14.9936 1C14.783 3.42153 15.8782 5.3128 16.9664 6.9925C18.0546 8.67019 19.1147 10.1592 19.2271 11.8639C19.3113 13.0295 18.9041 14.1884 18.4197 15.4348C17.9353 16.688 17.3806 18.0221 17.3315 19.5381L18.5952 19.5785C18.6303 18.332 19.1147 17.126 19.6062 15.8593C20.0906 14.5926 20.5891 13.2653 20.4908 11.783C20.3504 9.66063 19.1007 7.98968 18.0336 6.34905C16.9735 4.7091 16.0748 3.12776 16.2573 1.10241L14.9936 1ZM24.4153 1.64143C23.1025 2.35293 21.6702 3.22276 20.7576 4.1775C20.2029 4.75896 19.8589 5.34851 19.7817 5.91986C19.7115 6.42721 19.8379 6.95882 20.2942 7.58542C21.7124 7.53826 22.7725 6.65562 23.5026 5.34581C24.1275 4.2314 24.4364 2.84276 24.4153 1.64143ZM9.74923 6.32143C9.67201 6.3221 9.59478 6.32413 9.52457 6.32615C9.1244 6.33827 8.7523 6.37533 8.40829 6.42654C9.14546 7.55847 10.5496 8.83863 12.0731 9.57978C12.9928 10.0245 13.9405 10.2805 14.7971 10.2603C15.5553 10.2468 16.2293 10.0245 16.833 9.52588C16.7207 8.94643 16.3978 8.45458 15.8572 8.0099C15.2394 7.50457 14.3548 7.08683 13.3649 6.79711C12.2837 6.48044 11.0761 6.33086 9.98091 6.32143C9.90369 6.32076 9.82646 6.32076 9.74923 6.32143ZM24.1977 13.7706C24.0502 13.7774 23.9098 13.7908 23.7694 13.8043C22.7725 13.9256 21.937 14.3433 21.3262 15.3001C21.593 15.5628 21.8949 15.7043 22.2459 15.7717C22.7093 15.8593 23.278 15.7987 23.8747 15.6033C24.7663 15.3203 25.7211 14.7409 26.4583 14.121C25.7563 13.8986 25.0191 13.7706 24.3311 13.7706H24.1977ZM2.04761 20.697V21.9098H16.3907C16.3135 22.4016 16.1942 23.1023 16.0046 23.8502C15.6536 25.2651 14.9936 26.8215 14.3056 27.3336C13.428 27.9804 12.2135 28.0208 10.8234 27.8659C10.5566 27.7042 9.79838 27.2191 9.06121 26.5925C8.61189 26.2151 8.19065 25.7839 7.93791 25.4066C7.68517 25.0226 7.63602 24.7463 7.69219 24.5711C7.68517 24.6116 7.68517 24.5711 7.84664 24.5105C8.01514 24.4499 8.28192 24.396 8.55573 24.3758C9.10333 24.3286 9.64392 24.3758 9.64392 24.3758L9.75625 23.163C9.75625 23.163 9.6018 23.1495 9.3631 23.1428C9.11738 23.136 8.79443 23.136 8.45042 23.163C8.10641 23.1967 7.74133 23.2506 7.3903 23.3786C7.04629 23.5066 6.64963 23.7424 6.49588 24.1938C6.26771 24.8541 6.51272 25.5077 6.87078 26.0534C7.21479 26.5857 7.70623 27.0641 8.2047 27.4818C7.24989 27.3538 6.27192 27.273 5.34871 27.4145C5.10369 26.9496 4.79127 26.4577 4.28227 26.0602C3.65603 25.5683 2.76371 25.2651 1.52668 25.2382L1.5 26.451C2.54186 26.4712 3.0993 26.7003 3.48333 27.0035C3.74379 27.2056 3.93896 27.4684 4.11799 27.7716C3.87367 27.8861 3.63567 28.0208 3.4068 28.1826C2.66262 28.7148 2.3867 29.5907 2.16696 30.3521C1.94721 31.1067 1.85524 31.767 1.85524 31.767L3.10772 31.9287C3.10772 31.9287 3.19057 31.3425 3.38434 30.6755C3.5767 30.0152 3.9523 29.301 4.16082 29.1528C5.35362 28.3038 7.1516 28.5396 9.15248 28.8563C11.1463 29.173 13.3649 29.557 15.0779 28.2904C15.6395 27.8726 16.0538 27.2864 16.3837 26.6329C16.7207 27.3403 17.2051 27.9535 17.7878 28.4857C17.0366 28.6677 16.3837 28.9911 15.8151 29.3819C14.8743 30.0354 14.1301 30.8439 13.3719 31.5042L14.2143 32.4071C14.776 31.9152 15.2885 31.4099 15.801 30.9652C16.0889 31.4571 16.4961 31.8479 16.9524 32.1308C17.6825 32.589 18.511 32.8248 19.2692 33L19.5641 31.8276C18.862 31.6592 18.1599 31.4436 17.6474 31.1202C17.2613 30.8776 16.9735 30.6014 16.805 30.2039C17.514 29.7659 18.2652 29.5031 19.2903 29.557C19.7466 29.8063 20.224 30.0287 20.7154 30.2173C22.5829 30.9248 24.6751 31.1876 26.5075 31.0259C27.6588 30.9181 28.8102 30.2847 29.8352 29.5436C30.2986 29.9007 30.6777 30.3319 30.9375 30.7563C31.3096 31.3627 31.3938 31.9489 31.3096 32.2117L32.5031 32.589C32.7839 31.8007 32.5171 30.9383 32.0257 30.1365C31.7238 29.6514 31.3306 29.1865 30.8462 28.7687C30.8532 28.7687 30.8532 28.762 30.8602 28.762C32.124 27.7446 33.0577 26.7542 33.0577 26.7542L32.131 25.9322C32.131 25.9322 31.2323 26.8687 30.0459 27.8322C28.8523 28.7957 27.3218 29.7322 26.3951 29.8131C24.7804 29.9613 22.8427 29.7187 21.1788 29.0854C19.5219 28.4588 18.1599 27.4549 17.5351 26.1343C17.3526 25.7502 17.5842 24.652 18.0336 23.7087C18.2442 23.264 18.4688 22.8665 18.6514 22.5633C18.9182 22.6981 19.2201 22.8598 19.557 23.0484C20.4697 23.5605 21.5158 24.2612 21.9511 24.7665C22.274 25.1371 22.6953 26.0198 22.9831 26.7676C23.271 27.5223 23.4535 28.1489 23.4535 28.1489L24.6751 27.8255C24.6751 27.8255 24.4785 27.1517 24.1696 26.3499C23.973 25.8176 23.7343 25.2382 23.4324 24.7194C23.7203 24.6789 24.0994 24.6789 24.5347 24.7598C25.3912 24.9215 26.4162 25.3325 27.2727 25.9389L28.0169 24.9552C26.9989 24.2477 25.8405 23.7694 24.7734 23.574C24.3732 23.4999 23.98 23.4527 23.6009 23.4662C23.2429 23.4729 22.9059 23.5335 22.604 23.6548C21.937 23.0282 21.0173 22.469 20.2029 22.0041C20.1468 21.9704 20.0906 21.9434 20.0344 21.9098H33.5V20.697H2.04761Z" fill="#005129" stroke="#005129"></path>
  </symbol>
  <symbol fill="none" xmlns="http://www.w3.org/2000/svg" viewBox="0 0 32 32" id="Poultry">
    <path d="M32 14.4891L31.8256 13.8422C31.7776 13.6667 30.8688 10.4241 28.2485 8.97342C30.6352 7.05289 31.1568 4.6433 31.1829 4.51637L31.3264 3.8129L30.7488 3.4113C30.5936 3.30357 29.1584 2.35424 26.7291 2.35424C24.7675 2.35424 22.7355 2.97291 20.6885 4.19317C18.7168 5.36863 18.2384 7.23476 17.8165 8.88062C17.28 10.9777 16.8437 12.6438 13.6533 13.4043C13.3924 13.372 13.1323 13.3338 12.8731 13.2897L14.0059 12.223C14.0059 12.223 11.5227 13.023 10.5861 12.2246C10.5328 12.1793 10.4736 12.0806 10.4779 11.8689C10.4864 11.4817 11.0069 7.99902 11.008 6.98996C13.2293 6.46943 14.3248 4.17877 13.3797 3.60277C12.7125 3.1953 11.8736 4.2529 10.3205 4.59423C10.3349 4.38997 10.3392 4.1729 10.3173 3.93183C10.1963 2.58464 12.096 2.06358 11.8656 1.36918C11.5664 0.468381 9.12213 1.02411 7.9472 3.00704C7.80502 3.25212 7.69564 3.51481 7.62187 3.78837C7.56746 3.57621 7.49557 3.36892 7.40693 3.16864C6.86027 1.93664 8.56747 0.823046 8.04533 0.223582C7.35467 -0.568949 5.34507 0.828913 4.87253 3.09984C4.77932 3.57606 4.79207 4.06696 4.90987 4.5377C4.86293 4.49663 4.824 4.4561 4.7728 4.4145C3.90453 3.72224 4.7872 2.25557 4.136 1.98464C3.208 1.59691 2.36853 3.50464 2.87413 5.3697C2.9808 5.76223 3.19733 6.15529 3.47467 6.45556C1.72427 6.65343 0.432533 8.33822 0.375467 8.41502L0 8.91315L0.608533 8.84328C0.615467 8.84222 0.757333 8.82728 0.976 8.82728C1.2816 8.82728 1.7008 8.86355 2.11307 8.98728C1.53653 9.59741 0.995733 10.3398 0.657067 11.2097C-0.124267 13.2139 1.64907 12.1755 2.01013 12.2193C2.01013 12.2193 2.18133 12.4657 2.3968 12.6299C2.39467 12.7499 2.3856 12.8625 2.3856 12.9846C2.3856 14.5489 2.70933 19.0715 2.7232 19.263L2.82027 20.6091L3.62453 19.5792C5.0512 23.7195 8.36533 27.1238 12.2539 27.9904C12.7392 28.5872 13.4912 29.216 14.344 29.4821C13.0373 31.3408 10.6192 31.5248 10.6192 32H18.0251C18.0251 31.5088 16.7088 31.6261 15.8043 29.4944C16.7291 29.1824 17.5659 28.2667 18.1179 27.3542C20.5515 26.255 22.6059 24.1856 23.9451 21.6843C25.3515 22.1552 26.5637 22.2219 26.6619 22.2262L27.4357 22.2598L27.6848 21.503C27.7253 21.3803 28.5264 18.9008 28.1995 16.5297C30.1525 16.1387 31.4464 14.9894 31.5109 14.9313L32 14.4891ZM2.5328 8.57128C2.06347 8.38462 1.5712 8.31369 1.18133 8.29769C1.69227 7.78142 2.64747 7.00276 3.7456 6.97342C3.57493 7.27262 3.4176 7.59529 3.27413 7.94142C3.03627 8.12489 2.7856 8.33555 2.5328 8.57128ZM3.41973 12.9841C3.41973 10.0731 4.13173 8.02089 5.14987 6.73556C5.18613 6.70676 5.224 6.68009 5.26027 6.64596C5.55253 6.37129 6.2768 5.93876 6.71733 5.81716C7.04587 5.72703 7.8704 5.7633 8.38773 6.13023C8.86347 6.46996 9.2128 7.06516 9.9072 7.09449C9.92907 7.09556 9.94933 7.09236 9.9712 7.09289C9.95147 8.06089 9.45387 11.3889 9.44427 11.8449C9.43413 12.2934 9.57387 12.6822 9.84747 12.9702C10.0715 13.2059 10.3765 13.3697 10.7595 13.4598L9.608 14.2502L10.5525 15.3953L8.09707 15.1323L8.46187 17.3174L6.23147 15.6619L5.92427 18.184L4.63573 16.5846L3.66293 17.8305C3.56267 16.3286 3.41973 13.9862 3.41973 12.9841ZM17.5616 26.439L17.4032 26.5078L17.3157 26.6603C16.68 27.7723 15.7941 28.5483 15.1627 28.5483C14.4581 28.5483 13.5488 27.9861 12.9509 27.1824L12.8315 27.0219L12.6395 26.983C8.82187 26.216 5.58027 22.7435 4.3936 18.5942L4.648 18.2694L6.6528 20.7574L7.04053 17.5761L9.90987 19.7072L9.34827 16.3393L12.8235 16.7121C11.4453 17.7686 10.7883 19.3659 11.0917 21.0256C11.4464 22.9611 13.0288 24.3995 15.1227 24.6907C15.6069 24.7579 16.0864 24.7915 16.5488 24.7915C20.1605 24.7915 21.8699 22.76 21.9403 22.6731L22.1413 22.4283L22.0256 22.1302C21.7435 21.4027 21.1712 20.8523 20.7008 20.4976C21.7632 19.6288 22.3813 18.4528 22.4123 18.3936L22.6768 17.8838L22.1627 17.6529C21.6485 17.4219 20.3915 17.2571 19.4661 17.1611C19.6621 16.8926 19.8439 16.614 20.0107 16.3265L20.3589 15.7137L19.6901 15.5409C19.6528 15.5307 18.7605 15.3041 17.5136 15.3041C15.9648 15.3041 14.5883 15.6427 13.4229 16.311C13.2491 16.4113 13.0907 16.5238 12.9333 16.6385L11.1488 14.4731L11.6187 14.151C12.7072 14.3478 13.6469 14.5179 14.2395 14.5179C16.4459 14.5179 18.5173 13.8726 20.1824 13.3537C21.3675 12.9851 22.3909 12.6657 23.1424 12.6657C23.6795 12.6657 24.5781 12.6657 24.5781 15.2315C24.5776 19.9712 21.6267 24.6843 17.5616 26.439ZM18.3835 18.1355C19.16 18.1942 20.3696 18.3216 21.1387 18.4694C20.7963 18.9595 20.2283 19.6432 19.4992 20.0438L18.5989 20.5398L19.52 20.9958C19.5307 21.0011 20.4523 21.4646 20.9136 22.2235C20.3872 22.7024 18.9787 23.7248 16.5477 23.7248C16.1312 23.7248 15.6981 23.6939 15.2603 23.6331C13.2635 23.3552 12.3227 22.0016 12.1072 20.8267C11.848 19.4086 12.544 18.0353 13.9253 17.2427C14.9355 16.6641 16.1424 16.3702 17.5136 16.3702C17.9696 16.3702 18.3739 16.4043 18.6928 16.4449C18.5163 16.6945 18.296 16.9782 18.0555 17.2267L17.2592 18.0502L18.3835 18.1355ZM26.9131 15.5915C27.768 17.9312 26.7045 21.16 26.7045 21.16C26.7045 21.16 25.6523 21.112 24.4133 20.7232C25.1787 19.0006 25.6117 17.1179 25.6117 15.2315C25.6117 13.6726 25.3557 11.599 23.1413 11.599C22.2368 11.599 21.1461 11.9393 19.8827 12.3323C18.8816 12.6443 17.8005 12.9782 16.6571 13.1995C19.5376 10.9355 18.1088 6.96276 21.2053 5.11583C23.3941 3.8113 25.2677 3.42037 26.728 3.42037C28.9115 3.42037 30.1696 4.29557 30.1696 4.29557C30.1696 4.29557 29.4763 7.68436 25.56 9.34942C29.5461 9.38408 30.8277 14.1286 30.8277 14.1286C30.8277 14.1286 29.2091 15.5915 26.9131 15.5915Z" fill="#E6FDF1"></path>
  </symbol>
  <symbol fill="none" xmlns="http://www.w3.org/2000/svg" viewBox="0 0 33 32" id="Pisciculture">
    <path d="M32.5 14.4891L32.3256 13.8422C32.2776 13.6667 31.3688 10.4241 28.7485 8.97342C31.1352 7.05289 31.6568 4.6433 31.6829 4.51637L31.8264 3.8129L31.2488 3.4113C31.0936 3.30357 29.6584 2.35424 27.2291 2.35424C25.2675 2.35424 23.2355 2.97291 21.1885 4.19317C19.2168 5.36863 18.7384 7.23476 18.3165 8.88062C17.78 10.9777 17.3437 12.6438 14.1533 13.4043C13.8924 13.372 13.6323 13.3338 13.3731 13.2897L14.5059 12.223C14.5059 12.223 12.0227 13.023 11.0861 12.2246C11.0328 12.1793 10.9736 12.0806 10.9779 11.8689C10.9864 11.4817 11.5069 7.99902 11.508 6.98996C13.7293 6.46943 14.8248 4.17877 13.8797 3.60277C13.2125 3.1953 12.3736 4.2529 10.8205 4.59423C10.8349 4.38997 10.8392 4.1729 10.8173 3.93183C10.6963 2.58464 12.596 2.06358 12.3656 1.36918C12.0664 0.468381 9.62213 1.02411 8.4472 3.00704C8.30502 3.25212 8.19564 3.51481 8.12187 3.78837C8.06746 3.57621 7.99557 3.36892 7.90693 3.16864C7.36027 1.93664 9.06747 0.823046 8.54533 0.223582C7.85467 -0.568949 5.84507 0.828913 5.37253 3.09984C5.27932 3.57606 5.29207 4.06696 5.40987 4.5377C5.36293 4.49663 5.324 4.4561 5.2728 4.4145C4.40453 3.72224 5.2872 2.25557 4.636 1.98464C3.708 1.59691 2.86853 3.50464 3.37413 5.3697C3.4808 5.76223 3.69733 6.15529 3.97467 6.45556C2.22427 6.65343 0.932533 8.33822 0.875467 8.41502L0.5 8.91315L1.10853 8.84328C1.11547 8.84222 1.25733 8.82728 1.476 8.82728C1.7816 8.82728 2.2008 8.86355 2.61307 8.98728C2.03653 9.59741 1.49573 10.3398 1.15707 11.2097C0.375733 13.2139 2.14907 12.1755 2.51013 12.2193C2.51013 12.2193 2.68133 12.4657 2.8968 12.6299C2.89467 12.7499 2.8856 12.8625 2.8856 12.9846C2.8856 14.5489 3.20933 19.0715 3.2232 19.263L3.32027 20.6091L4.12453 19.5792C5.5512 23.7195 8.86533 27.1238 12.7539 27.9904C13.2392 28.5872 13.9912 29.216 14.844 29.4821C13.5373 31.3408 11.1192 31.5248 11.1192 32H18.5251C18.5251 31.5088 17.2088 31.6261 16.3043 29.4944C17.2291 29.1824 18.0659 28.2667 18.6179 27.3542C21.0515 26.255 23.1059 24.1856 24.4451 21.6843C25.8515 22.1552 27.0637 22.2219 27.1619 22.2262L27.9357 22.2598L28.1848 21.503C28.2253 21.3803 29.0264 18.9008 28.6995 16.5297C30.6525 16.1387 31.9464 14.9894 32.0109 14.9313L32.5 14.4891ZM3.0328 8.57128C2.56347 8.38462 2.0712 8.31369 1.68133 8.29769C2.19227 7.78142 3.14747 7.00276 4.2456 6.97342C4.07493 7.27262 3.9176 7.59529 3.77413 7.94142C3.53627 8.12489 3.2856 8.33555 3.0328 8.57128ZM3.91973 12.9841C3.91973 10.0731 4.63173 8.02089 5.64987 6.73556C5.68613 6.70676 5.724 6.68009 5.76027 6.64596C6.05253 6.37129 6.7768 5.93876 7.21733 5.81716C7.54587 5.72703 8.3704 5.7633 8.88773 6.13023C9.36347 6.46996 9.7128 7.06516 10.4072 7.09449C10.4291 7.09556 10.4493 7.09236 10.4712 7.09289C10.4515 8.06089 9.95387 11.3889 9.94427 11.8449C9.93413 12.2934 10.0739 12.6822 10.3475 12.9702C10.5715 13.2059 10.8765 13.3697 11.2595 13.4598L10.108 14.2502L11.0525 15.3953L8.59707 15.1323L8.96187 17.3174L6.73147 15.6619L6.42427 18.184L5.13573 16.5846L4.16293 17.8305C4.06267 16.3286 3.91973 13.9862 3.91973 12.9841ZM18.0616 26.439L17.9032 26.5078L17.8157 26.6603C17.18 27.7723 16.2941 28.5483 15.6627 28.5483C14.9581 28.5483 14.0488 27.9861 13.4509 27.1824L13.3315 27.0219L13.1395 26.983C9.32187 26.216 6.08027 22.7435 4.8936 18.5942L5.148 18.2694L7.1528 20.7574L7.54053 17.5761L10.4099 19.7072L9.84827 16.3393L13.3235 16.7121C11.9453 17.7686 11.2883 19.3659 11.5917 21.0256C11.9464 22.9611 13.5288 24.3995 15.6227 24.6907C16.1069 24.7579 16.5864 24.7915 17.0488 24.7915C20.6605 24.7915 22.3699 22.76 22.4403 22.6731L22.6413 22.4283L22.5256 22.1302C22.2435 21.4027 21.6712 20.8523 21.2008 20.4976C22.2632 19.6288 22.8813 18.4528 22.9123 18.3936L23.1768 17.8838L22.6627 17.6529C22.1485 17.4219 20.8915 17.2571 19.9661 17.1611C20.1621 16.8926 20.3439 16.614 20.5107 16.3265L20.8589 15.7137L20.1901 15.5409C20.1528 15.5307 19.2605 15.3041 18.0136 15.3041C16.4648 15.3041 15.0883 15.6427 13.9229 16.311C13.7491 16.4113 13.5907 16.5238 13.4333 16.6385L11.6488 14.4731L12.1187 14.151C13.2072 14.3478 14.1469 14.5179 14.7395 14.5179C16.9459 14.5179 19.0173 13.8726 20.6824 13.3537C21.8675 12.9851 22.8909 12.6657 23.6424 12.6657C24.1795 12.6657 25.0781 12.6657 25.0781 15.2315C25.0776 19.9712 22.1267 24.6843 18.0616 26.439ZM18.8835 18.1355C19.66 18.1942 20.8696 18.3216 21.6387 18.4694C21.2963 18.9595 20.7283 19.6432 19.9992 20.0438L19.0989 20.5398L20.02 20.9958C20.0307 21.0011 20.9523 21.4646 21.4136 22.2235C20.8872 22.7024 19.4787 23.7248 17.0477 23.7248C16.6312 23.7248 16.1981 23.6939 15.7603 23.6331C13.7635 23.3552 12.8227 22.0016 12.6072 20.8267C12.348 19.4086 13.044 18.0353 14.4253 17.2427C15.4355 16.6641 16.6424 16.3702 18.0136 16.3702C18.4696 16.3702 18.8739 16.4043 19.1928 16.4449C19.0163 16.6945 18.796 16.9782 18.5555 17.2267L17.7592 18.0502L18.8835 18.1355ZM27.4131 15.5915C28.268 17.9312 27.2045 21.16 27.2045 21.16C27.2045 21.16 26.1523 21.112 24.9133 20.7232C25.6787 19.0006 26.1117 17.1179 26.1117 15.2315C26.1117 13.6726 25.8557 11.599 23.6413 11.599C22.7368 11.599 21.6461 11.9393 20.3827 12.3323C19.3816 12.6443 18.3005 12.9782 17.1571 13.1995C20.0376 10.9355 18.6088 6.96276 21.7053 5.11583C23.8941 3.8113 25.7677 3.42037 27.228 3.42037C29.4115 3.42037 30.6696 4.29557 30.6696 4.29557C30.6696 4.29557 29.9763 7.68436 26.06 9.34942C30.0461 9.38408 31.3277 14.1286 31.3277 14.1286C31.3277 14.1286 29.7091 15.5915 27.4131 15.5915Z" fill="#005129"></path>
    <path d="M3.1162 7.82625C3.30766 7.82625 3.46286 7.74841 3.46286 7.65238C3.46286 7.55636 3.30766 7.47852 3.1162 7.47852C2.92474 7.47852 2.76953 7.55636 2.76953 7.65238C2.76953 7.74841 2.92474 7.82625 3.1162 7.82625Z" fill="#005129"></path>
    <path d="M6.01191 8.62734C6.45374 8.62734 6.81191 8.26917 6.81191 7.82734C6.81191 7.38551 6.45374 7.02734 6.01191 7.02734C5.57009 7.02734 5.21191 7.38551 5.21191 7.82734C5.21191 8.26917 5.57009 8.62734 6.01191 8.62734Z" fill="#005129"></path>
  </symbol>
  <symbol fill="none" xmlns="http://www.w3.org/2000/svg" viewBox="0 0 34 24" id="Animal">
    <path fill-rule="evenodd" clip-rule="evenodd" d="M13.2943 4.02944C13.8044 3.62279 14.2236 3.0738 14.3682 2.5495C14.4501 2.25177 14.4887 1.78048 14.1248 1.39997C13.753 1.01001 13.2028 0.96717 12.7699 1.01655C12.4285 1.05576 12.1835 1.06375 11.9659 1.07029L11.9305 1.07174C11.6815 1.079 11.3843 1.08844 11.0574 1.1843C10.7161 1.28451 10.3932 1.46024 10.0069 1.71803C9.75451 1.88544 9.51636 2.06968 9.29441 2.2692C7.98601 1.42684 6.3017 1.09788 3.65838 1.21479C3.33884 1.21768 3.03367 1.33522 2.80998 1.54153C2.5863 1.74785 2.46243 2.02606 2.46563 2.31495C2.46882 2.60384 2.59882 2.87975 2.82702 3.08198C3.05523 3.28421 3.36294 3.3962 3.68247 3.39332H4.83747C4.90655 3.43616 4.97241 3.47755 5.03425 3.51749L3.21099 5.57982C2.85546 5.60641 2.5109 5.70403 2.20217 5.86565C1.89345 6.02727 1.62827 6.24885 1.42578 6.51439C1.22329 6.77993 1.08854 7.08281 1.03126 7.40116C0.973983 7.71951 0.995606 8.04538 1.09457 8.35526L1.32749 9.08143C1.47246 9.53489 1.77641 9.93352 2.19359 10.2173C2.61077 10.5011 3.11862 10.6547 3.6407 10.6551H6.14829C6.32309 10.655 6.49313 10.7065 6.63262 10.8017L8.19323 11.8678C8.32977 11.9607 8.47274 12.0384 8.62053 12.1023C9.54983 14.3752 10.5506 16.3112 11.6823 17.6009L11.9393 20.3967C11.6734 20.5817 11.4783 20.8373 11.3813 21.1277C11.2842 21.4181 11.2902 21.7287 11.3984 22.0159C11.5066 22.3031 11.7115 22.5524 11.9844 22.7289C12.2573 22.9054 12.5845 23.0002 12.92 23H15.3296C15.5427 23 15.747 22.9235 15.8976 22.7873C16.0482 22.6511 16.1328 22.4664 16.1328 22.2738V16.4644H18.6388L18.6709 16.5712C18.4883 16.6584 18.3498 16.8059 18.2843 16.983C18.2188 17.1601 18.2313 17.3532 18.3192 17.5222C18.4071 17.6913 18.5636 17.8232 18.7563 17.8905C18.9489 17.9579 19.1629 17.9556 19.3537 17.8841L19.4428 17.8507C19.7207 18.1434 20.0549 18.4026 20.4332 18.6204L20.4308 18.6263C20.3379 18.7952 20.3213 18.9901 20.3846 19.1699C20.4479 19.3496 20.586 19.5 20.7698 19.5893C20.9536 19.6786 21.1686 19.6997 21.3694 19.6482C21.5701 19.5966 21.7407 19.4765 21.8452 19.3132L21.9118 19.2014C22.4422 19.3266 22.9897 19.3821 23.5375 19.3662L23.5584 19.4643C23.5989 19.6534 23.7208 19.8202 23.8973 19.9281C24.0739 20.0359 24.2906 20.076 24.4998 20.0394C24.7089 20.0028 24.8935 19.8926 25.0128 19.733C25.1321 19.5734 25.1764 19.3774 25.1359 19.1883L25.1206 19.1193C25.5128 19.0045 25.8882 18.8472 26.2387 18.6509L26.3993 20.3959C26.1332 20.5808 25.9378 20.8363 25.8406 21.1266C25.7433 21.4169 25.749 21.7275 25.8569 22.0147C25.9648 22.302 26.1695 22.5515 26.4423 22.7282C26.715 22.9049 27.0421 22.9999 27.3776 23H29.7872C30.0002 23 30.2045 22.9235 30.3552 22.7873C30.5058 22.6511 30.5904 22.4664 30.5904 22.2738V9.92888C30.5904 8.01977 30.09 6.63205 29.2475 5.68294C29.9262 5.80131 30.3727 6.00609 30.6707 6.26533C31.1181 6.65383 31.3936 7.30812 31.3936 8.4758L31.7044 12.4117C31.5149 12.6767 31.3936 13.0921 31.3936 13.559C31.3936 14.3614 31.7534 15.0114 32.1968 15.0114C32.6402 15.0114 33 14.3614 33 13.559C33 13.0921 32.8779 12.6767 32.6892 12.4117L33 8.47653C33 7.14473 32.6924 6.00754 31.784 5.21819C30.8868 4.439 29.5703 4.14563 27.9503 4.12094L25.5287 4.11949H14.928C14.3256 4.11949 13.7851 4.08609 13.2943 4.02944ZM27.8017 6.39532C27.1768 5.81365 26.3551 5.58273 25.5367 5.57256H14.928C13.0887 5.57256 11.7393 5.29371 10.6117 4.94587C10.4454 4.89462 10.3024 4.79554 10.2044 4.66378C10.1064 4.53203 10.0589 4.37487 10.0691 4.21637C10.0793 4.05787 10.1467 3.90676 10.2609 3.78618C10.3752 3.66559 10.53 3.58218 10.7016 3.54872C11.2502 3.44197 11.7699 3.25752 12.0871 3.0462C12.3137 2.89312 12.5078 2.70416 12.6598 2.4885C12.398 2.51029 12.1907 2.51682 12.0237 2.52191H12.0213C11.7321 2.53135 11.6478 2.53788 11.553 2.56548C11.4566 2.59452 11.2968 2.66278 10.9594 2.88717C10.5482 3.16094 10.2398 3.45213 10.0599 3.6925C9.99437 3.7794 9.90879 3.8524 9.80903 3.90646C9.70927 3.96052 9.59772 3.99435 9.48208 4.0056C9.36644 4.01686 9.24948 4.00527 9.13928 3.97165C9.02908 3.93803 8.92827 3.88317 8.84382 3.81086C8.28881 3.33667 7.62939 2.98448 6.61093 2.79713L6.70169 2.8712C6.85232 2.99549 6.94501 3.16692 6.96097 3.35073C6.97693 3.53454 6.91496 3.71695 6.78763 3.86097L4.23025 6.75114C4.15505 6.83629 4.05962 6.90504 3.95103 6.9523C3.84244 6.99957 3.72347 7.02414 3.60295 7.02418H3.41019C3.28561 7.02414 3.16272 7.05029 3.05125 7.10058C2.93978 7.15086 2.84277 7.2239 2.7679 7.31393C2.69302 7.40395 2.64234 7.50848 2.61985 7.61926C2.59736 7.73005 2.60368 7.84404 2.63831 7.95223L2.87044 8.67841C2.91881 8.82951 3.02014 8.96234 3.1592 9.05689C3.29826 9.15144 3.46751 9.20261 3.64151 9.2027H6.14909C6.67321 9.2027 7.18303 9.35719 7.60127 9.64277L9.16189 10.7088C9.25666 10.7727 9.35305 10.8134 9.44863 10.8351C9.5752 10.8646 9.6919 10.9215 9.78862 11.001C9.88534 11.0805 9.95915 11.1801 10.0036 11.2912C11.006 13.7936 12.0197 15.7165 13.0767 16.8471C13.1843 16.9626 13.2494 17.1055 13.263 17.256L13.5875 20.7706C13.6044 20.9523 13.5451 21.133 13.4215 21.2769C13.2978 21.4209 13.1189 21.5175 12.92 21.5477H14.5264V15.7383C14.5264 15.5457 14.6111 15.361 14.7617 15.2248C14.9123 15.0886 15.1166 15.0121 15.3296 15.0121H20.3336L20.2613 14.9467C19.3537 14.1211 18.2991 13.0783 17.8774 12.5141L19.2075 11.7007C19.5344 12.1372 20.4878 13.0921 21.4002 13.9228C21.7719 14.2657 22.1577 14.5959 22.5568 14.9126C22.7038 15.0252 22.7897 15.0818 22.8227 15.1014C22.7804 15.0828 22.736 15.0687 22.6901 15.0593C22.7934 15.0946 22.8874 15.1487 22.9664 15.2183C24.0749 16.1936 25.2652 16.9205 27.1093 17.2008C27.2852 17.2276 27.4462 17.3067 27.5669 17.4254C27.6876 17.5441 27.7612 17.6958 27.776 17.8565L28.0451 20.7714C28.0618 20.9529 28.0024 21.1334 27.8788 21.2772C27.7551 21.421 27.5763 21.5175 27.3776 21.5477H28.984V9.92888C28.984 8.05535 28.441 6.99078 27.8017 6.39532ZM23.3616 17.9168C21.801 17.9168 20.7617 17.2218 20.3488 16.4644H22.0853C22.7118 16.9916 23.3938 17.4651 24.1978 17.8456C23.9383 17.8914 23.6596 17.9168 23.3616 17.9168Z" fill="#E6FDF1" stroke="#E6FDF1" stroke-width="0.5"></path>
  </symbol>
</defs>
</svg>




























