<svg aria-hidden="true" style="position: absolute; width: 0; height: 0; overflow: hidden;" version="1.1" xmlns="http://www.w3.org/2000/svg" xmlns:xlink="http://www.w3.org/1999/xlink">
<defs>
<symbol id="icon-logo" viewBox="0 0 35 32">
<path fill="#00cf6a" style="fill: var(--color1, #00cf6a)" d="M31.164 31.5c-0.481-0-0.956-0.079-1.39-0.23s-0.814-0.371-1.114-0.642c-0.927-0.722-8.091-5.8-12.481-8.896-0.304-0.211-0.547-0.464-0.715-0.743s-0.258-0.58-0.264-0.884c-0.006-0.304 0.071-0.607 0.227-0.89s0.389-0.541 0.684-0.758c0.295-0.218 0.647-0.391 1.035-0.511s0.805-0.182 1.227-0.184 0.84 0.055 1.231 0.17c0.391 0.115 0.746 0.284 1.046 0.499 0.031 0.022 3.193 2.252 6.331 4.48l0.983 0.698v-10.843c0-4.217-4.715-7.648-10.511-7.648s-10.511 3.431-10.511 7.648v16.427c0 0.612-0.337 1.199-0.937 1.632s-1.414 0.676-2.262 0.676-1.662-0.243-2.262-0.676c-0.6-0.433-0.937-1.020-0.937-1.632v-16.427c0-6.763 7.585-12.264 16.909-12.264s16.909 5.502 16.909 12.264v16.427c-0 0.612-0.338 1.199-0.938 1.632s-1.414 0.676-2.262 0.676z"></path>
<path fill="#00cf6a" style="fill: var(--color1, #00cf6a)" d="M17.455 14.983c2.019 0 3.656-1.181 3.656-2.638s-1.637-2.638-3.656-2.638-3.656 1.181-3.656 2.638c0 1.457 1.637 2.638 3.656 2.638z"></path>
</symbol>
<symbol id="icon-menu" viewBox="0 0 32 32">
<path fill="none" stroke="#00e676" style="stroke: var(--color1, #00e676)" stroke-linejoin="round" stroke-linecap="round" stroke-miterlimit="4" stroke-width="4" d="M2 4h28M2 16h28M2 28h28"></path>
</symbol>
<symbol id="icon-x-close" viewBox="0 0 32 32">
<path fill="none" stroke="#e8efe9" style="stroke: var(--color1, #e8efe9)" stroke-linejoin="round" stroke-linecap="round" stroke-miterlimit="4" stroke-width="2.4615" d="M1.231 30.769l14.769-14.769 14.769 14.769M30.769 1.231l-14.772 14.769-14.766-14.769"></path>
</symbol>
<symbol id="menu-icon-farm" viewBox="0 0 37 32">
<path fill="#b0f7d5" style="fill: var(--color1, #b0f7d5)" d="M10.007 1.225l-0.316 1.5h2.536l-0.316-1.5h-1.905zM10.284 4.075v1.050h1.35v-1.050h-1.35zM7.981 6.475l-0.583 7.050h1.286l0.45-6h9.791l-0.15-1.050h-10.793zM30.684 8.2v5.595c0.451 0.035 0.901 0.076 1.35 0.125v-5.72h-1.35zM10.386 8.875l-0.349 4.65h0.473c0.75 0 1.466 0.321 2.175 0.798v-5.448h-2.299zM14.034 8.875v6.319l5.85 0.651v-1.597l-0.768-5.373h-5.082zM4.959 14.875c-0.6 0-1.747 0.507-2.803 1.352-0.818 0.654-1.594 1.492-2.156 2.337l1.261 0.315c1.502-1.888 3.816-3.105 6.398-3.105 3.795 0 7.011 2.627 7.919 6.15h1.531c-0.685-1.405-1.731-3.016-2.874-4.342-0.7-0.812-1.43-1.514-2.096-1.995s-1.266-0.713-1.629-0.713h-5.55zM21.234 14.879v8.246h2.411c0.681-2.262 1.965-3.808 3.684-4.589 0.923-0.42 1.949-0.623 3.055-0.643 0.855-0.016 1.758 0.079 2.699 0.265v-2.737c-0.862-0.134-1.881-0.238-2.972-0.315-3.016-0.212-6.462-0.225-8.878-0.226zM34.434 15.69v1.434h1.050v-1.006c-0.298-0.202-0.743-0.345-1.050-0.429zM15.245 16.688c0.004 0.005 0.008 0.009 0.012 0.014 1.5 1.739 2.838 3.869 3.532 5.654l0.357 0.92h-3.34c0.019 0.223 0.028 0.448 0.028 0.675 0 0.538-0.053 1.065-0.154 1.575h4.204v-8.321l-4.64-0.516zM7.659 17.125c-3.756 0-6.825 3.069-6.825 6.825s3.069 6.825 6.825 6.825c3.756 0 6.825-3.069 6.825-6.825s-3.069-6.825-6.825-6.825zM34.434 18.475v1.050h1.050v-1.050h-1.050zM7.659 18.775c2.862 0 5.175 2.313 5.175 5.175s-2.313 5.175-5.175 5.175c-2.862 0-5.175-2.313-5.175-5.175s2.313-5.175 5.175-5.175zM30.73 19.245c-0.967 0.012-2.053 0.17-2.841 0.519-1.263 0.574-2.226 1.616-2.827 3.36h0.793c1.045-1.704 2.926-2.85 5.055-2.85 0.745 0 1.483 0.143 2.175 0.42v-1.159c-0.839-0.181-1.626-0.279-2.355-0.291zM7.659 20.125c-2.144 0-3.825 1.681-3.825 3.825s1.681 3.825 3.825 3.825c2.144 0 3.825-1.681 3.825-3.825s-1.681-3.825-3.825-3.825zM34.434 20.875v0.575c0.389 0.29 0.742 0.627 1.050 1.002v-1.577h-1.050zM30.909 21.625c-2.512 0-4.575 2.063-4.575 4.575s2.063 4.575 4.575 4.575c2.512 0 4.575-2.063 4.575-4.575s-2.063-4.575-4.575-4.575zM30.909 23.275c1.614 0 2.925 1.311 2.925 2.925s-1.311 2.925-2.925 2.925c-1.614 0-2.925-1.311-2.925-2.925s1.311-2.925 2.925-2.925zM21.234 24.475v1.153l3.751 0.625c-0-0.018-0.001-0.035-0.001-0.053 0-0.599 0.091-1.178 0.26-1.725h-4.010zM30.909 24.625c-0.907 0-1.575 0.668-1.575 1.575s0.668 1.575 1.575 1.575c0.907 0 1.575-0.668 1.575-1.575s-0.668-1.575-1.575-1.575z"></path>
</symbol>
<symbol id="menu-icon-market" viewBox="0 0 37 32">
<path fill="#b0f7d5" style="fill: var(--color1, #b0f7d5)" d="M9.575 0c-1.424 0-2.4 0-3.271 0.198-0.902 0.207-1.741 0.571-2.464 1.067s-1.313 1.115-1.732 1.814c-0.404 0.673-0.594 1.475-0.873 2.645l-1.102 4.611c-0.195 0.808-0.176 1.643 0.055 2.444s0.67 1.551 1.285 2.195v4.086c0 2.736 0 4.903 0.272 6.598 0.281 1.744 0.871 3.157 2.201 4.271 1.33 1.113 3.017 1.607 5.102 1.843 2.025 0.228 4.613 0.228 7.879 0.228h1.979c3.268 0 5.856 0 7.881-0.228 2.084-0.235 3.771-0.729 5.102-1.843 1.33-1.115 1.92-2.527 2.201-4.271 0.272-1.697 0.272-3.862 0.272-6.598v-4.084c0.615-0.645 1.053-1.394 1.285-2.196s0.25-1.636 0.054-2.445l-1.102-4.611c-0.277-1.17-0.469-1.972-0.871-2.645-0.419-0.7-1.009-1.318-1.733-1.815s-1.563-0.86-2.465-1.067c-0.869-0.198-1.845-0.198-3.271-0.198h-16.684zM29.062 17.116c0.905 0.001 1.801-0.149 2.635-0.444v2.304c0 2.838-0.004 4.855-0.249 6.385-0.24 1.496-0.692 2.359-1.444 2.989s-1.783 1.008-3.573 1.209c-0.908 0.094-1.82 0.151-2.734 0.17v-4.102c0-0.655 0-1.22-0.050-1.682-0.053-0.491-0.171-0.976-0.487-1.433-0.351-0.509-0.855-0.932-1.463-1.227-0.546-0.263-1.125-0.362-1.712-0.406-0.551-0.042-1.227-0.042-2.009-0.042h-0.116c-0.782 0-1.456 0-2.009 0.042-0.587 0.045-1.164 0.143-1.71 0.406-0.608 0.294-1.114 0.717-1.465 1.227-0.315 0.457-0.432 0.942-0.485 1.432-0.050 0.464-0.050 1.028-0.050 1.682v4.103c-0.915-0.019-1.829-0.075-2.738-0.17-1.787-0.201-2.818-0.579-3.57-1.209-0.754-0.63-1.204-1.493-1.444-2.99-0.247-1.529-0.249-3.545-0.249-6.384v-2.304c1.421 0.503 3.004 0.584 4.487 0.23s2.778-1.12 3.67-2.174c0.646 0.741 1.492 1.343 2.469 1.758s2.057 0.631 3.153 0.629c1.095 0.001 2.176-0.214 3.153-0.629s1.823-1.017 2.469-1.758c0.626 0.738 1.453 1.34 2.414 1.756s2.026 0.632 3.108 0.632zM14.807 29.764v-4.090c0-0.716 0.002-1.179 0.039-1.529 0.036-0.335 0.098-0.458 0.139-0.518 0.117-0.169 0.286-0.31 0.489-0.408 0.073-0.036 0.217-0.088 0.619-0.117 0.418-0.033 0.971-0.033 1.826-0.033 0.609-0.009 1.218 0.001 1.826 0.033 0.4 0.031 0.546 0.082 0.619 0.117 0.202 0.098 0.37 0.239 0.487 0.408 0.043 0.061 0.105 0.183 0.14 0.518 0.037 0.35 0.039 0.813 0.039 1.529v4.090c-0.692 0.003-1.429 0.003-2.222 0.003h-1.778c-0.793 0-1.532 0-2.222-0.003zM11.999 2.233h0.004l-1.012 8.473-0.007 0.063-0.123 1.021c-0.052 0.466-0.217 0.917-0.484 1.328s-0.632 0.771-1.072 1.059c-0.44 0.288-0.945 0.499-1.485 0.618s-1.103 0.145-1.656 0.076c-0.552-0.069-1.082-0.232-1.557-0.479s-0.884-0.571-1.204-0.955c-0.32-0.384-0.542-0.818-0.654-1.276s-0.112-0.931 0.002-1.388l1.063-4.45c0.332-1.393 0.459-1.872 0.681-2.243 0.251-0.42 0.606-0.79 1.039-1.088s0.937-0.516 1.478-0.64c0.476-0.109 1.065-0.119 2.761-0.119h2.226zM13.636 10.977l1.045-8.744h6.475l1.038 8.695c0.058 0.498-0.008 1-0.195 1.475s-0.489 0.912-0.889 1.283c-0.399 0.371-0.887 0.669-1.432 0.874s-1.134 0.312-1.732 0.316c-0.597 0.003-1.188-0.097-1.736-0.296s-1.040-0.491-1.446-0.857c-0.406-0.367-0.716-0.8-0.91-1.273s-0.269-0.974-0.219-1.472zM28.825 2.352c0.541 0.124 1.045 0.342 1.479 0.64s0.788 0.668 1.040 1.088c0.22 0.371 0.347 0.85 0.681 2.243l1.061 4.45c0.111 0.457 0.11 0.928-0.004 1.385s-0.337 0.889-0.656 1.271c-0.319 0.382-0.729 0.706-1.202 0.951s-1.002 0.408-1.553 0.477c-0.551 0.069-1.113 0.043-1.652-0.075s-1.043-0.328-1.482-0.615-0.804-0.646-1.072-1.055c-0.268-0.409-0.434-0.859-0.487-1.323l-1.143-9.555h2.229c1.696 0 2.284 0.010 2.761 0.119z"></path>
</symbol>
<symbol id="menu-icon-home" viewBox="0 0 30 32">
<path fill="#d9fbea" style="fill: var(--color2, #d9fbea); stroke: var(--color2, #d9fbea)" stroke="#d9fbea" stroke-linejoin="miter" stroke-linecap="butt" stroke-miterlimit="4" stroke-width="1.6" d="M13.285 1.484c0.54-0.442 1.217-0.684 1.915-0.684s1.375 0.242 1.915 0.684l10.54 8.594c0.359 0.294 0.647 0.664 0.845 1.084s0.3 0.878 0.299 1.341v15.588c0 1.718-1.37 3.11-3.060 3.11h-4.28c-1.69 0-3.060-1.392-3.060-3.11v-7.381c0-0.573-0.456-1.037-1.020-1.037h-4.36c-0.563 0-1.020 0.464-1.020 1.037v7.381c0 1.718-1.37 3.11-3.060 3.11h-4.28c-1.69 0-3.060-1.392-3.060-3.11v-15.588c-0.001-0.464 0.101-0.922 0.299-1.341s0.487-0.789 0.845-1.083l10.54-8.594zM15.838 3.101c-0.18-0.147-0.406-0.228-0.638-0.228s-0.458 0.081-0.638 0.228l-10.54 8.593c-0.12 0.098-0.216 0.222-0.282 0.361s-0.1 0.293-0.1 0.447v15.588c0 0.573 0.456 1.037 1.020 1.037h4.28c0.563 0 1.020-0.464 1.020-1.037v-7.381c0-1.718 1.37-3.11 3.060-3.11h4.36c1.69 0 3.060 1.392 3.060 3.11v7.381c0 0.573 0.456 1.037 1.020 1.037h4.28c0.563 0 1.020-0.464 1.020-1.037v-15.588c0-0.155-0.034-0.307-0.1-0.447s-0.162-0.263-0.282-0.361l-10.54-8.594z"></path>
</symbol>
<symbol id="icon-cart-icon" viewBox="0 0 32 32">
<path fill="#fff" style="fill: var(--color5, #fff)" d="M14.394 15.471c0-0.434 0.339-0.793 0.748-0.793h1.247v-1.322c0-0.434 0.339-0.793 0.748-0.793s0.748 0.36 0.748 0.793v1.322h1.247c0.409 0 0.748 0.36 0.748 0.793s-0.339 0.793-0.748 0.793h-1.247v1.322c0 0.434-0.339 0.793-0.748 0.793s-0.748-0.36-0.748-0.793v-1.322h-1.247c-0.409 0-0.748-0.36-0.748-0.793zM15.252 23.14c0 0.878-0.668 1.587-1.496 1.587s-1.496-0.709-1.496-1.587 0.668-1.587 1.496-1.587c0.828 0 1.496 0.709 1.496 1.587zM21.734 23.14c0 0.878-0.668 1.587-1.496 1.587s-1.496-0.709-1.496-1.587 0.668-1.587 1.496-1.587c0.828 0 1.496 0.709 1.496 1.587zM24.706 11.43l-1.995 8.463c-0.040 0.172-0.134 0.326-0.266 0.435s-0.295 0.168-0.462 0.168h-9.974c-0.359 0-0.668-0.275-0.738-0.656l-1.885-10.98h-1.366c-0.409 0-0.748-0.36-0.748-0.793s0.339-0.793 0.748-0.793h1.995c0.359 0 0.668 0.275 0.738 0.656l0.429 2.518h12.796c0.113 0.001 0.225 0.028 0.327 0.081s0.191 0.129 0.261 0.224c0.070 0.095 0.119 0.205 0.143 0.322s0.023 0.239-0.003 0.356zM23.021 12.033h-11.569l1.177 6.876h8.767l1.616-6.876h0.010z"></path>
</symbol>
<symbol fill="none" xmlns="http://www.w3.org/2000/svg" viewBox="0 0 400 803" id="Subtract">
<path opacity="0.25" fill-rule="evenodd" clip-rule="evenodd" d="M304 3C304 30.6142 259.228 53 204 53C148.772 53 104 30.6142 104 3C104 1.39978 102.77 0 101.17 0H12C5.37258 0 0 5.37258 0 12V791C0 797.627 5.37259 803 12 803H89C95.6274 803 100.858 797.399 103.699 791.412C114.153 769.385 153.75 753 201 753C248.25 753 287.847 769.385 298.301 791.412C301.142 797.399 306.373 803 313 803H388C394.627 803 400 797.627 400 791V12C400 5.37258 394.627 0 388 0H306.83C305.23 0 304 1.39978 304 3ZM4 129C4 122.373 9.37258 117 16 117H92C98.6274 117 104 122.373 104 129V205C104 211.627 98.6274 217 92 217H16C9.37258 217 4 211.627 4 205V129ZM395 279C395 272.373 389.627 267 383 267H307C300.373 267 295 272.373 295 279V355C295 361.627 300.373 367 307 367H383C389.627 367 395 361.627 395 355V279ZM5 426C5 419.373 10.3726 414 17 414H93C99.6274 414 105 419.373 105 426V502C105 508.627 99.6274 514 93 514H17C10.3726 514 5 508.627 5 502V426ZM396 600C396 593.373 390.627 588 384 588H308C301.373 588 296 593.373 296 600V676C296 682.627 301.373 688 308 688H384C390.627 688 396 682.627 396 676V600Z" fill="#B0F7D5"></path>
</symbol>
<symbol fill="none" xmlns="http://www.w3.org/2000/svg" viewBox="0 0 50 50" id="plant">
<rect width="50" height="50" rx="25" fill="#B0F7D5"></rect>
<path d="M36.9633 14.3979C36.9465 14.046 36.8262 13.714 36.6252 13.4647C36.4242 13.2155 36.1564 13.0663 35.8726 13.0455C30.7162 12.6687 26.5625 14.6499 24.7585 18.3423C23.5836 20.7423 23.5429 23.6427 24.6172 26.4184C24.1577 27.1447 23.7909 27.9541 23.5294 28.8184L22.5906 27.6544C23.2865 25.6419 23.2129 23.5611 22.3584 21.8115C21.0054 19.0431 17.9239 17.5599 14.1167 17.8335C13.8329 17.8543 13.5651 18.0035 13.3641 18.2528C13.1631 18.502 13.0428 18.834 13.026 19.1859C12.8053 23.9067 14.0015 27.7276 16.2361 29.4052C16.994 29.9779 17.8648 30.2798 18.7524 30.2776C19.5091 30.2699 20.2566 30.071 20.9493 29.6932L23.0639 32.32V35.56C23.0639 35.9419 23.1862 36.3082 23.404 36.5782C23.6218 36.8483 23.9172 37 24.2252 37C24.5332 37 24.8286 36.8483 25.0464 36.5782C25.2642 36.3082 25.3866 35.9419 25.3866 35.56V32.0212C25.3842 30.734 25.7052 29.4778 26.305 28.4272C27.276 28.9997 28.3356 29.3044 29.4107 29.32C30.5677 29.3234 31.703 28.9305 32.6915 28.1848C35.6694 25.942 37.2672 20.7903 36.9633 14.3979ZM17.4391 26.9416C16.1626 25.9816 15.3893 23.6463 15.3264 20.6859C17.7139 20.7639 19.5982 21.7239 20.3715 23.3055C20.6739 23.9154 20.7979 24.6357 20.7228 25.3455L19.6263 23.9811C19.4081 23.7106 19.1122 23.5586 18.8037 23.5586C18.4951 23.5586 18.1992 23.7106 17.981 23.9811C17.7629 24.2517 17.6403 24.6186 17.6403 25.0011C17.6403 25.3837 17.7629 25.7506 17.981 26.0212L19.0785 27.382C18.5076 27.4694 17.9296 27.3141 17.4391 26.9416ZM31.4885 25.72C30.4568 26.494 29.2626 26.6404 28.0229 26.1712L31.6279 21.7023C31.846 21.4318 31.9686 21.0649 31.9686 20.6823C31.9686 20.2998 31.846 19.9328 31.6279 19.6623C31.4097 19.3918 31.1138 19.2398 30.8053 19.2398C30.4967 19.2398 30.2008 19.3918 29.9826 19.6623L26.3776 24.1311C26.0031 22.5999 26.1211 21.1131 26.7415 19.8399C27.9774 17.3091 30.903 15.8715 34.6774 15.8799C34.6909 20.5599 33.5296 24.1815 31.4885 25.72Z" fill="#005129"></path>
</symbol>
<symbol fill="none" xmlns="http://www.w3.org/2000/svg" viewBox="0 0 1600 800" id="Subtract_dt">
<path fill-rule="evenodd" clip-rule="evenodd" d="M0 16C0 7.16344 7.16343 0 16 0H1584C1592.84 0 1600 7.16343 1600 16V784C1600 792.837 1592.84 800 1584 800H16C7.16344 800 0 792.837 0 784V16ZM51.2543 103.432C51.2543 94.5952 58.4178 87.4318 67.2543 87.4318H581.017C589.854 87.4318 597.017 94.5952 597.017 103.432V239.009C597.017 247.845 604.18 255.009 613.017 255.009H913.22C922.057 255.009 929.22 262.172 929.22 271.009V414.025C929.22 579.711 794.906 714.025 629.22 714.025H446.915C438.079 714.025 430.915 706.862 430.915 698.025V601.064C430.915 592.227 423.752 585.064 414.915 585.064H67.2543C58.4177 585.064 51.2543 577.9 51.2543 569.064V103.432Z" fill="#B0F7D5"></path>
</symbol>
<symbol fill="none" xmlns="http://www.w3.org/2000/svg" viewBox="0 0 420 300" id="Subtract-farm">
    <path fill-rule="evenodd" clip-rule="evenodd" d="M0 70.5126C0 65.1991 3.49437 60.5182 8.58867 59.0077L205.925 0.495097C208.146 -0.163348 210.51 -0.165063 212.731 0.490161L411.169 59.0163C416.272 60.5213 419.775 65.2062 419.775 70.5262V288C419.775 294.627 414.402 300 407.775 300H12C5.3726 300 0 294.627 0 288V70.5126ZM19.5894 284.979V66.7041H59.328V284.979H19.5894ZM66.0444 284.979V66.7041H172.387V284.979H66.0444ZM200.652 284.979H219.962V66.7041H200.652V153.125C211.203 154.396 219.425 164.596 219.425 176.991C219.425 189.386 211.203 199.587 200.652 200.858V284.979ZM196.175 66.7041V153.128C185.635 154.411 177.425 164.605 177.425 176.991C177.425 189.377 185.635 199.572 196.175 200.855V284.979H176.865V66.7041H196.175ZM354.01 284.979H224.44V66.7041H354.01V284.979ZM404.077 289.453C403.627 289.851 403.035 290.093 402.386 290.093H15.7098C15.2604 290.093 14.8381 289.977 14.4712 289.773H12.873V62.8691H13.4951C13.9372 62.1049 14.7634 61.5907 15.7098 61.5907H402.386C403.194 61.5907 403.914 61.965 404.382 62.5495H405.223V289.453H404.077ZM398.506 284.979V66.7041H360.727V284.979H398.506Z" fill="#D9FBEA" fill-opacity="0.95"></path>
  </symbol>

  <symbol fill="none" xmlns="http://www.w3.org/2000/svg" viewBox="0 0 134 140" id="Ellipse">
    <g filter="url(#filter0_d_196_616)">
      <ellipse cx="63" cy="66" rx="21" ry="24" fill="#D9FBEA"></ellipse>
      <ellipse cx="63" cy="66" rx="21" ry="24" stroke="#005129" stroke-width="2"></ellipse>
    </g>
    <defs>
      <filter id="filter0_d_196_616" x="0" y="0" width="134" height="140" filterUnits="userSpaceOnUse" color-interpolation-filters="sRGB">
        <feFlood flood-opacity="0" result="BackgroundImageFix"></feFlood>
        <feColorMatrix in="SourceAlpha" type="matrix" values="0 0 0 0 0 0 0 0 0 0 0 0 0 0 0 0 0 0 127 0" result="hardAlpha"></feColorMatrix>
        <feMorphology radius="20" operator="dilate" in="SourceAlpha" result="effect1_dropShadow_196_616"></feMorphology>
        <feOffset dx="4" dy="4"></feOffset>
        <feGaussianBlur stdDeviation="12.5"></feGaussianBlur>
        <feComposite in2="hardAlpha" operator="out"></feComposite>
        <feColorMatrix type="matrix" values="0 0 0 0 0.0444167 0 0 0 0 0.170833 0 0 0 0 0.0128125 0 0 0 0.1 0"></feColorMatrix>
        <feBlend mode="normal" in2="BackgroundImageFix" result="effect1_dropShadow_196_616"></feBlend>
        <feBlend mode="normal" in="SourceGraphic" in2="effect1_dropShadow_196_616" result="shape"></feBlend>
      </filter>
    </defs>
  </symbol>
</defs>
</svg>




















