<svg aria-hidden="true" style="position: absolute; width: 0; height: 0; overflow: hidden;" version="1.1" xmlns="http://www.w3.org/2000/svg" xmlns:xlink="http://www.w3.org/1999/xlink">
<defs>
<symbol id="icon-logo" viewBox="0 0 35 32">
<path fill="#00cf6a" style="fill: var(--color1, #00cf6a)" d="M31.164 31.5c-0.481-0-0.956-0.079-1.39-0.23s-0.814-0.371-1.114-0.642c-0.927-0.722-8.091-5.8-12.481-8.896-0.304-0.211-0.547-0.464-0.715-0.743s-0.258-0.58-0.264-0.884c-0.006-0.304 0.071-0.607 0.227-0.89s0.389-0.541 0.684-0.758c0.295-0.218 0.647-0.391 1.035-0.511s0.805-0.182 1.227-0.184 0.84 0.055 1.231 0.17c0.391 0.115 0.746 0.284 1.046 0.499 0.031 0.022 3.193 2.252 6.331 4.48l0.983 0.698v-10.843c0-4.217-4.715-7.648-10.511-7.648s-10.511 3.431-10.511 7.648v16.427c0 0.612-0.337 1.199-0.937 1.632s-1.414 0.676-2.262 0.676-1.662-0.243-2.262-0.676c-0.6-0.433-0.937-1.020-0.937-1.632v-16.427c0-6.763 7.585-12.264 16.909-12.264s16.909 5.502 16.909 12.264v16.427c-0 0.612-0.338 1.199-0.938 1.632s-1.414 0.676-2.262 0.676z"></path>
<path fill="#00cf6a" style="fill: var(--color1, #00cf6a)" d="M17.455 14.983c2.019 0 3.656-1.181 3.656-2.638s-1.637-2.638-3.656-2.638-3.656 1.181-3.656 2.638c0 1.457 1.637 2.638 3.656 2.638z"></path>
</symbol>
<symbol id="icon-menu" viewBox="0 0 32 32">
<path fill="none" stroke="#00e676" style="stroke: var(--color1, #00e676)" stroke-linejoin="round" stroke-linecap="round" stroke-miterlimit="4" stroke-width="4" d="M2 4h28M2 16h28M2 28h28"></path>
</symbol>
<symbol id="icon-x-close" viewBox="0 0 32 32">
<path fill="none" stroke="#e8efe9" style="stroke: var(--color1, #e8efe9)" stroke-linejoin="round" stroke-linecap="round" stroke-miterlimit="4" stroke-width="2.4615" d="M1.231 30.769l14.769-14.769 14.769 14.769M30.769 1.231l-14.772 14.769-14.766-14.769"></path>
</symbol>
<symbol id="menu-icon-farm" viewBox="0 0 37 32">
<path fill="#b0f7d5" style="fill: var(--color1, #b0f7d5)" d="M10.007 1.225l-0.316 1.5h2.536l-0.316-1.5h-1.905zM10.284 4.075v1.050h1.35v-1.050h-1.35zM7.981 6.475l-0.583 7.050h1.286l0.45-6h9.791l-0.15-1.050h-10.793zM30.684 8.2v5.595c0.451 0.035 0.901 0.076 1.35 0.125v-5.72h-1.35zM10.386 8.875l-0.349 4.65h0.473c0.75 0 1.466 0.321 2.175 0.798v-5.448h-2.299zM14.034 8.875v6.319l5.85 0.651v-1.597l-0.768-5.373h-5.082zM4.959 14.875c-0.6 0-1.747 0.507-2.803 1.352-0.818 0.654-1.594 1.492-2.156 2.337l1.261 0.315c1.502-1.888 3.816-3.105 6.398-3.105 3.795 0 7.011 2.627 7.919 6.15h1.531c-0.685-1.405-1.731-3.016-2.874-4.342-0.7-0.812-1.43-1.514-2.096-1.995s-1.266-0.713-1.629-0.713h-5.55zM21.234 14.879v8.246h2.411c0.681-2.262 1.965-3.808 3.684-4.589 0.923-0.42 1.949-0.623 3.055-0.643 0.855-0.016 1.758 0.079 2.699 0.265v-2.737c-0.862-0.134-1.881-0.238-2.972-0.315-3.016-0.212-6.462-0.225-8.878-0.226zM34.434 15.69v1.434h1.050v-1.006c-0.298-0.202-0.743-0.345-1.050-0.429zM15.245 16.688c0.004 0.005 0.008 0.009 0.012 0.014 1.5 1.739 2.838 3.869 3.532 5.654l0.357 0.92h-3.34c0.019 0.223 0.028 0.448 0.028 0.675 0 0.538-0.053 1.065-0.154 1.575h4.204v-8.321l-4.64-0.516zM7.659 17.125c-3.756 0-6.825 3.069-6.825 6.825s3.069 6.825 6.825 6.825c3.756 0 6.825-3.069 6.825-6.825s-3.069-6.825-6.825-6.825zM34.434 18.475v1.050h1.050v-1.050h-1.050zM7.659 18.775c2.862 0 5.175 2.313 5.175 5.175s-2.313 5.175-5.175 5.175c-2.862 0-5.175-2.313-5.175-5.175s2.313-5.175 5.175-5.175zM30.73 19.245c-0.967 0.012-2.053 0.17-2.841 0.519-1.263 0.574-2.226 1.616-2.827 3.36h0.793c1.045-1.704 2.926-2.85 5.055-2.85 0.745 0 1.483 0.143 2.175 0.42v-1.159c-0.839-0.181-1.626-0.279-2.355-0.291zM7.659 20.125c-2.144 0-3.825 1.681-3.825 3.825s1.681 3.825 3.825 3.825c2.144 0 3.825-1.681 3.825-3.825s-1.681-3.825-3.825-3.825zM34.434 20.875v0.575c0.389 0.29 0.742 0.627 1.050 1.002v-1.577h-1.050zM30.909 21.625c-2.512 0-4.575 2.063-4.575 4.575s2.063 4.575 4.575 4.575c2.512 0 4.575-2.063 4.575-4.575s-2.063-4.575-4.575-4.575zM30.909 23.275c1.614 0 2.925 1.311 2.925 2.925s-1.311 2.925-2.925 2.925c-1.614 0-2.925-1.311-2.925-2.925s1.311-2.925 2.925-2.925zM21.234 24.475v1.153l3.751 0.625c-0-0.018-0.001-0.035-0.001-0.053 0-0.599 0.091-1.178 0.26-1.725h-4.010zM30.909 24.625c-0.907 0-1.575 0.668-1.575 1.575s0.668 1.575 1.575 1.575c0.907 0 1.575-0.668 1.575-1.575s-0.668-1.575-1.575-1.575z"></path>
</symbol>
<symbol id="menu-icon-market" viewBox="0 0 37 32">
<path fill="#b0f7d5" style="fill: var(--color1, #b0f7d5)" d="M9.575 0c-1.424 0-2.4 0-3.271 0.198-0.902 0.207-1.741 0.571-2.464 1.067s-1.313 1.115-1.732 1.814c-0.404 0.673-0.594 1.475-0.873 2.645l-1.102 4.611c-0.195 0.808-0.176 1.643 0.055 2.444s0.67 1.551 1.285 2.195v4.086c0 2.736 0 4.903 0.272 6.598 0.281 1.744 0.871 3.157 2.201 4.271 1.33 1.113 3.017 1.607 5.102 1.843 2.025 0.228 4.613 0.228 7.879 0.228h1.979c3.268 0 5.856 0 7.881-0.228 2.084-0.235 3.771-0.729 5.102-1.843 1.33-1.115 1.92-2.527 2.201-4.271 0.272-1.697 0.272-3.862 0.272-6.598v-4.084c0.615-0.645 1.053-1.394 1.285-2.196s0.25-1.636 0.054-2.445l-1.102-4.611c-0.277-1.17-0.469-1.972-0.871-2.645-0.419-0.7-1.009-1.318-1.733-1.815s-1.563-0.86-2.465-1.067c-0.869-0.198-1.845-0.198-3.271-0.198h-16.684zM29.062 17.116c0.905 0.001 1.801-0.149 2.635-0.444v2.304c0 2.838-0.004 4.855-0.249 6.385-0.24 1.496-0.692 2.359-1.444 2.989s-1.783 1.008-3.573 1.209c-0.908 0.094-1.82 0.151-2.734 0.17v-4.102c0-0.655 0-1.22-0.050-1.682-0.053-0.491-0.171-0.976-0.487-1.433-0.351-0.509-0.855-0.932-1.463-1.227-0.546-0.263-1.125-0.362-1.712-0.406-0.551-0.042-1.227-0.042-2.009-0.042h-0.116c-0.782 0-1.456 0-2.009 0.042-0.587 0.045-1.164 0.143-1.71 0.406-0.608 0.294-1.114 0.717-1.465 1.227-0.315 0.457-0.432 0.942-0.485 1.432-0.050 0.464-0.050 1.028-0.050 1.682v4.103c-0.915-0.019-1.829-0.075-2.738-0.17-1.787-0.201-2.818-0.579-3.57-1.209-0.754-0.63-1.204-1.493-1.444-2.99-0.247-1.529-0.249-3.545-0.249-6.384v-2.304c1.421 0.503 3.004 0.584 4.487 0.23s2.778-1.12 3.67-2.174c0.646 0.741 1.492 1.343 2.469 1.758s2.057 0.631 3.153 0.629c1.095 0.001 2.176-0.214 3.153-0.629s1.823-1.017 2.469-1.758c0.626 0.738 1.453 1.34 2.414 1.756s2.026 0.632 3.108 0.632zM14.807 29.764v-4.090c0-0.716 0.002-1.179 0.039-1.529 0.036-0.335 0.098-0.458 0.139-0.518 0.117-0.169 0.286-0.31 0.489-0.408 0.073-0.036 0.217-0.088 0.619-0.117 0.418-0.033 0.971-0.033 1.826-0.033 0.609-0.009 1.218 0.001 1.826 0.033 0.4 0.031 0.546 0.082 0.619 0.117 0.202 0.098 0.37 0.239 0.487 0.408 0.043 0.061 0.105 0.183 0.14 0.518 0.037 0.35 0.039 0.813 0.039 1.529v4.090c-0.692 0.003-1.429 0.003-2.222 0.003h-1.778c-0.793 0-1.532 0-2.222-0.003zM11.999 2.233h0.004l-1.012 8.473-0.007 0.063-0.123 1.021c-0.052 0.466-0.217 0.917-0.484 1.328s-0.632 0.771-1.072 1.059c-0.44 0.288-0.945 0.499-1.485 0.618s-1.103 0.145-1.656 0.076c-0.552-0.069-1.082-0.232-1.557-0.479s-0.884-0.571-1.204-0.955c-0.32-0.384-0.542-0.818-0.654-1.276s-0.112-0.931 0.002-1.388l1.063-4.45c0.332-1.393 0.459-1.872 0.681-2.243 0.251-0.42 0.606-0.79 1.039-1.088s0.937-0.516 1.478-0.64c0.476-0.109 1.065-0.119 2.761-0.119h2.226zM13.636 10.977l1.045-8.744h6.475l1.038 8.695c0.058 0.498-0.008 1-0.195 1.475s-0.489 0.912-0.889 1.283c-0.399 0.371-0.887 0.669-1.432 0.874s-1.134 0.312-1.732 0.316c-0.597 0.003-1.188-0.097-1.736-0.296s-1.040-0.491-1.446-0.857c-0.406-0.367-0.716-0.8-0.91-1.273s-0.269-0.974-0.219-1.472zM28.825 2.352c0.541 0.124 1.045 0.342 1.479 0.64s0.788 0.668 1.040 1.088c0.22 0.371 0.347 0.85 0.681 2.243l1.061 4.45c0.111 0.457 0.11 0.928-0.004 1.385s-0.337 0.889-0.656 1.271c-0.319 0.382-0.729 0.706-1.202 0.951s-1.002 0.408-1.553 0.477c-0.551 0.069-1.113 0.043-1.652-0.075s-1.043-0.328-1.482-0.615-0.804-0.646-1.072-1.055c-0.268-0.409-0.434-0.859-0.487-1.323l-1.143-9.555h2.229c1.696 0 2.284 0.010 2.761 0.119z"></path>
</symbol>
<symbol id="menu-icon-home" viewBox="0 0 30 32">
<path fill="#d9fbea" style="fill: var(--color2, #d9fbea); stroke: var(--color2, #d9fbea)" stroke="#d9fbea" stroke-linejoin="miter" stroke-linecap="butt" stroke-miterlimit="4" stroke-width="1.6" d="M13.285 1.484c0.54-0.442 1.217-0.684 1.915-0.684s1.375 0.242 1.915 0.684l10.54 8.594c0.359 0.294 0.647 0.664 0.845 1.084s0.3 0.878 0.299 1.341v15.588c0 1.718-1.37 3.11-3.060 3.11h-4.28c-1.69 0-3.060-1.392-3.060-3.11v-7.381c0-0.573-0.456-1.037-1.020-1.037h-4.36c-0.563 0-1.020 0.464-1.020 1.037v7.381c0 1.718-1.37 3.11-3.060 3.11h-4.28c-1.69 0-3.060-1.392-3.060-3.11v-15.588c-0.001-0.464 0.101-0.922 0.299-1.341s0.487-0.789 0.845-1.083l10.54-8.594zM15.838 3.101c-0.18-0.147-0.406-0.228-0.638-0.228s-0.458 0.081-0.638 0.228l-10.54 8.593c-0.12 0.098-0.216 0.222-0.282 0.361s-0.1 0.293-0.1 0.447v15.588c0 0.573 0.456 1.037 1.020 1.037h4.28c0.563 0 1.020-0.464 1.020-1.037v-7.381c0-1.718 1.37-3.11 3.060-3.11h4.36c1.69 0 3.060 1.392 3.060 3.11v7.381c0 0.573 0.456 1.037 1.020 1.037h4.28c0.563 0 1.020-0.464 1.020-1.037v-15.588c0-0.155-0.034-0.307-0.1-0.447s-0.162-0.263-0.282-0.361l-10.54-8.594z"></path>
</symbol>
<symbol id="icon-cart-icon" viewBox="0 0 32 32">
<path fill="#fff" style="fill: var(--color5, #fff)" d="M14.394 15.471c0-0.434 0.339-0.793 0.748-0.793h1.247v-1.322c0-0.434 0.339-0.793 0.748-0.793s0.748 0.36 0.748 0.793v1.322h1.247c0.409 0 0.748 0.36 0.748 0.793s-0.339 0.793-0.748 0.793h-1.247v1.322c0 0.434-0.339 0.793-0.748 0.793s-0.748-0.36-0.748-0.793v-1.322h-1.247c-0.409 0-0.748-0.36-0.748-0.793zM15.252 23.14c0 0.878-0.668 1.587-1.496 1.587s-1.496-0.709-1.496-1.587 0.668-1.587 1.496-1.587c0.828 0 1.496 0.709 1.496 1.587zM21.734 23.14c0 0.878-0.668 1.587-1.496 1.587s-1.496-0.709-1.496-1.587 0.668-1.587 1.496-1.587c0.828 0 1.496 0.709 1.496 1.587zM24.706 11.43l-1.995 8.463c-0.040 0.172-0.134 0.326-0.266 0.435s-0.295 0.168-0.462 0.168h-9.974c-0.359 0-0.668-0.275-0.738-0.656l-1.885-10.98h-1.366c-0.409 0-0.748-0.36-0.748-0.793s0.339-0.793 0.748-0.793h1.995c0.359 0 0.668 0.275 0.738 0.656l0.429 2.518h12.796c0.113 0.001 0.225 0.028 0.327 0.081s0.191 0.129 0.261 0.224c0.070 0.095 0.119 0.205 0.143 0.322s0.023 0.239-0.003 0.356zM23.021 12.033h-11.569l1.177 6.876h8.767l1.616-6.876h0.010z"></path>
</symbol>
<symbol fill="none" xmlns="http://www.w3.org/2000/svg" viewBox="0 0 400 803" id="Subtract">
<path opacity="0.25" fill-rule="evenodd" clip-rule="evenodd" d="M304 3C304 30.6142 259.228 53 204 53C148.772 53 104 30.6142 104 3C104 1.39978 102.77 0 101.17 0H12C5.37258 0 0 5.37258 0 12V791C0 797.627 5.37259 803 12 803H89C95.6274 803 100.858 797.399 103.699 791.412C114.153 769.385 153.75 753 201 753C248.25 753 287.847 769.385 298.301 791.412C301.142 797.399 306.373 803 313 803H388C394.627 803 400 797.627 400 791V12C400 5.37258 394.627 0 388 0H306.83C305.23 0 304 1.39978 304 3ZM4 129C4 122.373 9.37258 117 16 117H92C98.6274 117 104 122.373 104 129V205C104 211.627 98.6274 217 92 217H16C9.37258 217 4 211.627 4 205V129ZM395 279C395 272.373 389.627 267 383 267H307C300.373 267 295 272.373 295 279V355C295 361.627 300.373 367 307 367H383C389.627 367 395 361.627 395 355V279ZM5 426C5 419.373 10.3726 414 17 414H93C99.6274 414 105 419.373 105 426V502C105 508.627 99.6274 514 93 514H17C10.3726 514 5 508.627 5 502V426ZM396 600C396 593.373 390.627 588 384 588H308C301.373 588 296 593.373 296 600V676C296 682.627 301.373 688 308 688H384C390.627 688 396 682.627 396 676V600Z" fill="#B0F7D5"></path>
</symbol>
<symbol fill="none" xmlns="http://www.w3.org/2000/svg" viewBox="0 0 50 50" id="plant">
<rect width="50" height="50" rx="25" fill="#B0F7D5"></rect>
<path d="M36.9633 14.3979C36.9465 14.046 36.8262 13.714 36.6252 13.4647C36.4242 13.2155 36.1564 13.0663 35.8726 13.0455C30.7162 12.6687 26.5625 14.6499 24.7585 18.3423C23.5836 20.7423 23.5429 23.6427 24.6172 26.4184C24.1577 27.1447 23.7909 27.9541 23.5294 28.8184L22.5906 27.6544C23.2865 25.6419 23.2129 23.5611 22.3584 21.8115C21.0054 19.0431 17.9239 17.5599 14.1167 17.8335C13.8329 17.8543 13.5651 18.0035 13.3641 18.2528C13.1631 18.502 13.0428 18.834 13.026 19.1859C12.8053 23.9067 14.0015 27.7276 16.2361 29.4052C16.994 29.9779 17.8648 30.2798 18.7524 30.2776C19.5091 30.2699 20.2566 30.071 20.9493 29.6932L23.0639 32.32V35.56C23.0639 35.9419 23.1862 36.3082 23.404 36.5782C23.6218 36.8483 23.9172 37 24.2252 37C24.5332 37 24.8286 36.8483 25.0464 36.5782C25.2642 36.3082 25.3866 35.9419 25.3866 35.56V32.0212C25.3842 30.734 25.7052 29.4778 26.305 28.4272C27.276 28.9997 28.3356 29.3044 29.4107 29.32C30.5677 29.3234 31.703 28.9305 32.6915 28.1848C35.6694 25.942 37.2672 20.7903 36.9633 14.3979ZM17.4391 26.9416C16.1626 25.9816 15.3893 23.6463 15.3264 20.6859C17.7139 20.7639 19.5982 21.7239 20.3715 23.3055C20.6739 23.9154 20.7979 24.6357 20.7228 25.3455L19.6263 23.9811C19.4081 23.7106 19.1122 23.5586 18.8037 23.5586C18.4951 23.5586 18.1992 23.7106 17.981 23.9811C17.7629 24.2517 17.6403 24.6186 17.6403 25.0011C17.6403 25.3837 17.7629 25.7506 17.981 26.0212L19.0785 27.382C18.5076 27.4694 17.9296 27.3141 17.4391 26.9416ZM31.4885 25.72C30.4568 26.494 29.2626 26.6404 28.0229 26.1712L31.6279 21.7023C31.846 21.4318 31.9686 21.0649 31.9686 20.6823C31.9686 20.2998 31.846 19.9328 31.6279 19.6623C31.4097 19.3918 31.1138 19.2398 30.8053 19.2398C30.4967 19.2398 30.2008 19.3918 29.9826 19.6623L26.3776 24.1311C26.0031 22.5999 26.1211 21.1131 26.7415 19.8399C27.9774 17.3091 30.903 15.8715 34.6774 15.8799C34.6909 20.5599 33.5296 24.1815 31.4885 25.72Z" fill="#005129"></path>
</symbol>
<symbol fill="none" xmlns="http://www.w3.org/2000/svg" viewBox="0 0 1600 800" id="Subtract_dt">
<path fill-rule="evenodd" clip-rule="evenodd" d="M0 16C0 7.16344 7.16343 0 16 0H1584C1592.84 0 1600 7.16343 1600 16V784C1600 792.837 1592.84 800 1584 800H16C7.16344 800 0 792.837 0 784V16ZM51.2543 103.432C51.2543 94.5952 58.4178 87.4318 67.2543 87.4318H581.017C589.854 87.4318 597.017 94.5952 597.017 103.432V239.009C597.017 247.845 604.18 255.009 613.017 255.009H913.22C922.057 255.009 929.22 262.172 929.22 271.009V414.025C929.22 579.711 794.906 714.025 629.22 714.025H446.915C438.079 714.025 430.915 706.862 430.915 698.025V601.064C430.915 592.227 423.752 585.064 414.915 585.064H67.2543C58.4177 585.064 51.2543 577.9 51.2543 569.064V103.432Z" fill="#B0F7D5"></path>
</symbol>
<symbol fill="none" xmlns="http://www.w3.org/2000/svg" viewBox="0 0 420 300" id="Subtract-farm">
    <path fill-rule="evenodd" clip-rule="evenodd" d="M0 70.5126C0 65.1991 3.49437 60.5182 8.58867 59.0077L205.925 0.495097C208.146 -0.163348 210.51 -0.165063 212.731 0.490161L411.169 59.0163C416.272 60.5213 419.775 65.2062 419.775 70.5262V288C419.775 294.627 414.402 300 407.775 300H12C5.3726 300 0 294.627 0 288V70.5126ZM19.5894 284.979V66.7041H59.328V284.979H19.5894ZM66.0444 284.979V66.7041H172.387V284.979H66.0444ZM200.652 284.979H219.962V66.7041H200.652V153.125C211.203 154.396 219.425 164.596 219.425 176.991C219.425 189.386 211.203 199.587 200.652 200.858V284.979ZM196.175 66.7041V153.128C185.635 154.411 177.425 164.605 177.425 176.991C177.425 189.377 185.635 199.572 196.175 200.855V284.979H176.865V66.7041H196.175ZM354.01 284.979H224.44V66.7041H354.01V284.979ZM404.077 289.453C403.627 289.851 403.035 290.093 402.386 290.093H15.7098C15.2604 290.093 14.8381 289.977 14.4712 289.773H12.873V62.8691H13.4951C13.9372 62.1049 14.7634 61.5907 15.7098 61.5907H402.386C403.194 61.5907 403.914 61.965 404.382 62.5495H405.223V289.453H404.077ZM398.506 284.979V66.7041H360.727V284.979H398.506Z" fill="#D9FBEA" fill-opacity="0.95"></path>
  </symbol>

  <symbol fill="none" xmlns="http://www.w3.org/2000/svg" viewBox="0 0 42 48" id="Ellipse">
    <g filter="url(#filter0_d_196_616)">
      <ellipse cx="21" cy="24" rx="21" ry="24" fill="#D9FBEA"></ellipse>
      <ellipse cx="21" cy="24" rx="21" ry="24" stroke="#005129" stroke-width="2"></ellipse>
    </g>
    <defs>
      <filter id="filter0_d_196_616" x="0" y="0" width="134" height="140" filterUnits="userSpaceOnUse" color-interpolation-filters="sRGB">
        <feFlood flood-opacity="0" result="BackgroundImageFix"></feFlood>
        <feColorMatrix in="SourceAlpha" type="matrix" values="0 0 0 0 0 0 0 0 0 0 0 0 0 0 0 0 0 0 127 0" result="hardAlpha"></feColorMatrix>
        <feMorphology radius="20" operator="dilate" in="SourceAlpha" result="effect1_dropShadow_196_616"></feMorphology>
        <feOffset dx="4" dy="4"></feOffset>
        <feGaussianBlur stdDeviation="12.5"></feGaussianBlur>
        <feComposite in2="hardAlpha" operator="out"></feComposite>
        <feColorMatrix type="matrix" values="0 0 0 0 0.0444167 0 0 0 0 0.170833 0 0 0 0 0.0128125 0 0 0 0.1 0"></feColorMatrix>
        <feBlend mode="normal" in2="BackgroundImageFix" result="effect1_dropShadow_196_616"></feBlend>
        <feBlend mode="normal" in="SourceGraphic" in2="effect1_dropShadow_196_616" result="shape"></feBlend>
      </filter>
    </defs>
  </symbol>
  <symbol fill="none" xmlns="http://www.w3.org/2000/svg" viewBox="0 0 1500 941" id="Subtract-farm-dt">
    <path fill-rule="evenodd" clip-rule="evenodd" d="M0 203.498C0 198.032 3.69374 193.257 8.98424 191.883L744.992 0.781453C746.965 0.269267 749.035 0.267926 751.009 0.777558L1491 191.892C1496.3 193.26 1500 198.039 1500 203.511V928.33C1500 934.958 1494.63 940.33 1488 940.33H12C5.37261 940.33 0 934.958 0 928.33V203.498ZM70 893.33V210.33H212V893.33H70ZM236 893.33V210.33H616V893.33H236ZM717 893.33H786V210.33H717V480.752C754.66 484.745 784 516.611 784 555.33C784 594.049 754.66 625.915 717 629.908V893.33ZM701 210.33V480.752C663.34 484.745 634 516.611 634 555.33C634 594.049 663.34 625.915 701 629.908V893.33H632V210.33H701ZM1265 893.33H802V210.33H1265V893.33ZM1444.29 907.33C1442.88 908.575 1441.03 909.33 1439 909.33H55C53.5939 909.33 52.2724 908.967 51.1242 908.33H46V198.33H48.0703C49.4535 195.939 52.0389 194.33 55 194.33H1439C1441.53 194.33 1443.78 195.501 1445.25 197.33H1448V907.33H1444.29ZM1424 893.33V210.33H1289V893.33H1424Z" fill="#D9FBEA" fill-opacity="0.95"></path>
  </symbol>
  <symbol fill="none" xmlns="http://www.w3.org/2000/svg" viewBox="0 0 150 150" id="Ellipse-dt">
    <g filter="url(#filter0_d_153_2172)">
      <circle cx="75" cy="75" r="75" fill="#0B270D"></circle>
      <circle cx="75" cy="75" r="75" stroke="#005129" stroke-width="2"></circle>
    </g>
    <defs>
      <filter id="filter0_d_153_2172" x="0" y="0" width="242" height="242" filterUnits="userSpaceOnUse" color-interpolation-filters="sRGB">
        <feFlood flood-opacity="0" result="BackgroundImageFix"></feFlood>
        <feColorMatrix in="SourceAlpha" type="matrix" values="0 0 0 0 0 0 0 0 0 0 0 0 0 0 0 0 0 0 127 0" result="hardAlpha"></feColorMatrix>
        <feMorphology radius="20" operator="dilate" in="SourceAlpha" result="effect1_dropShadow_153_2172"></feMorphology>
        <feOffset dx="4" dy="4"></feOffset>
        <feGaussianBlur stdDeviation="12.5"></feGaussianBlur>
        <feComposite in2="hardAlpha" operator="out"></feComposite>
        <feColorMatrix type="matrix" values="0 0 0 0 0.0444167 0 0 0 0 0.170833 0 0 0 0 0.0128125 0 0 0 0.1 0"></feColorMatrix>
        <feBlend mode="normal" in2="BackgroundImageFix" result="effect1_dropShadow_153_2172"></feBlend>
        <feBlend mode="normal" in="SourceGraphic" in2="effect1_dropShadow_153_2172" result="shape"></feBlend>
      </filter>
    </defs>
  </symbol>
  <symbol fill="none" xmlns="http://www.w3.org/2000/svg" viewBox="0 0 32 32" id="FruitFarm">
    <path fill-rule="evenodd" clip-rule="evenodd" d="M2.38334 8.09973C3.8019 6.59069 5.22046 6.08768 7.11127 7.0937C8.81427 7.99931 9.75056 8.0894 10.6103 8.09879C11.5064 8.0894 12.481 7.99931 14.2551 7.0937C16.2243 6.08768 17.7012 6.59069 19.1791 8.09973C20.9204 9.87904 21.4582 11.7315 21.6415 13.1308C21.6634 13.2434 21.6816 13.356 21.6989 13.4686C21.1111 13.6452 20.5851 13.9921 20.1835 14.4679C19.782 14.9438 19.5219 15.5285 19.4342 16.1523C19.3466 16.7761 19.4351 17.4127 19.6892 17.9862C19.9434 18.5596 20.3524 19.0457 20.8675 19.3865L20.7955 19.577C20.4344 19.3139 20.0241 19.131 19.5907 19.0398C19.1573 18.9486 18.7102 18.9512 18.2778 19.0474C17.8454 19.1436 17.4372 19.3313 17.079 19.5985C16.7208 19.8658 16.4206 20.2068 16.1973 20.5999C15.974 20.993 15.8325 21.4296 15.7819 21.882C15.7313 22.3344 15.7726 22.7927 15.9032 23.2277C16.0339 23.6628 16.2509 24.0651 16.5407 24.4092C16.8305 24.7533 17.1866 25.0316 17.5864 25.2265C17.504 25.3316 17.4198 25.4352 17.3338 25.5371C16.5726 26.3527 15.7065 26.8754 14.7675 26.7158C11.8137 26.2119 11.3214 26.2119 10.8291 26.2119H10.4006C9.92834 26.2119 9.45518 26.2119 6.61897 26.7158C4.34891 27.1175 2.52556 23.1938 1.62119 21.1827C0.198978 18.0267 -0.0845519 14.8012 0.0193786 13.1308C0.195331 11.7306 0.712249 9.87904 2.38334 8.10067V8.09973Z" fill="#005129"></path>
    <path fill-rule="evenodd" clip-rule="evenodd" d="M28.121 9.469C29.1451 9.84723 29.9813 10.6287 30.4456 11.6415C30.91 12.6544 30.9645 13.8156 30.5971 14.8698C30.568 14.9533 30.5288 15.0293 30.4814 15.0978C31.2251 15.7568 31.7149 16.6682 31.8621 17.6669C32.0093 18.6655 31.804 19.6855 31.2836 20.5418C31.0277 20.9617 30.7021 21.332 30.3218 21.6361C30.4041 22.4752 30.2392 23.3205 29.8487 24.062C30.3567 24.3447 30.8011 24.7346 31.1527 25.2063C31.5042 25.678 31.7551 26.2208 31.8888 26.7992C32.0225 27.3775 32.0361 27.9785 31.9287 28.5626C31.8212 29.1468 31.5952 29.701 31.2653 30.189C30.9354 30.677 30.5092 31.0878 30.0144 31.3945C29.5197 31.7013 28.9676 31.897 28.3942 31.969C27.8209 32.0409 27.2393 31.9874 26.6875 31.812C26.1356 31.6366 25.6259 31.3433 25.1918 30.9511C24.4985 31.5363 23.6381 31.8716 22.7421 31.9057C21.8462 31.9398 20.9641 31.6708 20.2307 31.1399C19.4973 30.6091 18.9531 29.8455 18.6812 28.966C18.4093 28.0866 18.4249 27.1397 18.7253 26.2701C17.677 26.2121 16.6901 25.7425 15.9679 24.958C15.2458 24.1735 14.8433 23.1339 14.8433 22.0532C14.8433 20.9725 15.2458 19.9328 15.9679 19.1484C16.6901 18.3639 17.677 17.8943 18.7253 17.8363C18.4987 17.1796 18.4334 16.4754 18.5354 15.7865C18.6373 15.0976 18.9033 14.4454 19.3096 13.888C19.7159 13.3306 20.2498 12.8853 20.8639 12.5919C21.4779 12.2985 22.153 12.1661 22.8288 12.2065C22.8379 12.1436 22.8525 12.0798 22.8744 12.0169C23.242 10.9629 24.0012 10.1024 24.9852 9.62458C25.9691 9.14677 27.097 9.09081 28.121 9.469ZM26.3132 29.4646C26.5579 29.7077 26.8523 29.8912 27.1748 30.0019C27.4974 30.1126 27.8399 30.1476 28.1773 30.1044C28.5147 30.0612 28.8385 29.9408 29.1248 29.752C29.4111 29.5633 29.6528 29.311 29.8321 29.0136C30.0115 28.7162 30.1239 28.3813 30.1612 28.0335C30.1984 27.6856 30.1596 27.3335 30.0476 27.0031C29.9355 26.6726 29.7531 26.3722 29.5136 26.1237C29.2741 25.8753 28.9836 25.6851 28.6635 25.5672C28.6324 25.5558 28.602 25.5426 28.5723 25.5278C27.9661 25.9595 27.2413 26.2279 26.4591 26.2711C26.6113 26.7121 26.6943 27.1889 26.6943 27.6844C26.6943 28.3207 26.5575 28.9231 26.3132 29.4646ZM26.4591 17.8372C27.0927 17.8718 27.7099 18.0574 28.2621 18.3794C28.8142 18.7013 29.2862 19.1508 29.6408 19.6925C29.8568 19.3902 29.9996 19.0392 30.0574 18.6687C30.1247 18.2334 30.0714 17.7874 29.9038 17.3818C29.7362 16.9762 29.461 16.6274 29.1097 16.3754C28.7584 16.1234 28.3452 15.9784 27.9176 15.9569C27.4899 15.9354 27.065 16.0384 26.6915 16.254C26.7128 16.7919 26.6339 17.3299 26.4591 17.8372ZM26.2011 14.4137C27.0497 14.0433 27.9946 13.9772 28.8841 14.226C29.0849 13.6404 29.0519 12.9967 28.7924 12.436C28.533 11.8754 28.0681 11.4435 27.4998 11.2351C26.9314 11.0267 26.306 11.0587 25.7606 11.3242C25.2152 11.5896 24.7943 12.0669 24.5901 12.6513C24.5822 12.6742 24.5734 12.6967 24.5637 12.7189C25.256 13.1106 25.8244 13.6989 26.2011 14.4137ZM22.5917 14.0768C21.9873 14.0768 21.4076 14.324 20.9801 14.764C20.5527 15.204 20.3126 15.8007 20.3126 16.4229C20.3126 17.0452 20.5527 17.6419 20.9801 18.0819C21.4076 18.5219 21.9873 18.7691 22.5917 18.7691C23.1962 18.7691 23.7759 18.5219 24.2034 18.0819C24.6308 17.6419 24.8709 17.0452 24.8709 16.4229C24.8709 15.8007 24.6308 15.204 24.2034 14.764C23.7759 14.324 23.1962 14.0768 22.5917 14.0768ZM18.9451 19.7075C18.3406 19.7075 17.7609 19.9547 17.3334 20.3947C16.906 20.8347 16.6659 21.4314 16.6659 22.0537C16.6659 22.6759 16.906 23.2726 17.3334 23.7126C17.7609 24.1526 18.3406 24.3998 18.9451 24.3998C19.5495 24.3998 20.1293 24.1526 20.5567 23.7126C20.9841 23.2726 21.2242 22.6759 21.2242 22.0537C21.2242 21.4314 20.9841 20.8347 20.5567 20.3947C20.1293 19.9547 19.5495 19.7075 18.9451 19.7075ZM23.9593 22.0537C23.9593 21.4314 24.1994 20.8347 24.6268 20.3947C25.0542 19.9547 25.634 19.7075 26.2384 19.7075C26.8429 19.7075 27.4226 19.9547 27.8501 20.3947C28.2775 20.8347 28.5176 21.4314 28.5176 22.0537C28.5176 22.6759 28.2775 23.2726 27.8501 23.7126C27.4226 24.1526 26.8429 24.3998 26.2384 24.3998C25.634 24.3998 25.0542 24.1526 24.6268 23.7126C24.1994 23.2726 23.9593 22.6759 23.9593 22.0537ZM22.5917 25.3383C21.9873 25.3383 21.4076 25.5854 20.9801 26.0254C20.5527 26.4654 20.3126 27.0622 20.3126 27.6844C20.3126 28.3066 20.5527 28.9034 20.9801 29.3434C21.4076 29.7833 21.9873 30.0305 22.5917 30.0305C23.1962 30.0305 23.7759 29.7833 24.2034 29.3434C24.6308 28.9034 24.8709 28.3066 24.8709 27.6844C24.8709 27.0622 24.6308 26.4654 24.2034 26.0254C23.7759 25.5854 23.1962 25.3383 22.5917 25.3383ZM0.515625 0.000938833H1.54855C4.1377 0.000938833 6.5755 1.19934 8.35509 2.79002C8.93371 3.30503 9.45807 3.88128 9.91951 4.50927V2.40807C9.91951 2.15918 10.0156 1.92048 10.1865 1.74449C10.3575 1.56849 10.5894 1.46962 10.8312 1.46962C11.073 1.46962 11.3049 1.56849 11.4758 1.74449C11.6468 1.92048 11.7429 2.15918 11.7429 2.40807V8.60187C11.743 8.74364 11.712 8.88361 11.652 9.01123C11.5919 9.13884 11.5046 9.25076 11.3964 9.33855V9.38454H11.3344C11.185 9.48695 11.0095 9.54143 10.83 9.5411C10.6505 9.54076 10.4752 9.48562 10.3261 9.38266C8.10164 9.34137 5.86622 8.45078 4.1067 7.02151C2.30524 5.55752 0.937729 3.47416 0.64417 1.05482L0.516537 0L0.515625 0.000938833ZM9.40077 7.42411C9.07804 6.40025 8.31042 5.23563 7.15989 4.20709C5.92001 3.09971 4.35194 2.25604 2.70728 1.97732C3.14762 3.34934 4.05018 4.58529 5.23626 5.54908C6.45152 6.53539 7.92296 7.19982 9.40077 7.42411Z" fill="#005129"></path>
    <path fill-rule="evenodd" clip-rule="evenodd" d="M28.2333 1.07422L28.3993 2.12341C28.8141 4.7539 28.0556 7.4238 26.8148 9.48652C25.595 11.5155 23.7753 13.1653 21.8781 13.4825L20.9783 13.6326L20.8324 12.7073C20.4677 10.394 20.9619 7.91179 22.0759 5.84719C23.1909 3.7826 24.9705 2.0596 27.2424 1.37359L28.2333 1.07422ZM26.689 3.61743C25.4445 4.28561 24.4034 5.40049 23.6695 6.75937C22.9183 8.15204 22.5153 9.75304 22.5381 11.2921C23.468 10.7994 24.4618 9.83281 25.264 8.49833C26.1283 7.06249 26.6853 5.33292 26.6899 3.61837L26.689 3.61743Z" fill="#005129"></path>
  </symbol>
  <symbol fill="none" xmlns="http://www.w3.org/2000/svg" viewBox="0 0 32 32" id="icon-next">
    <rect width="32" height="32" rx="16" fill="#0B270D"></rect>
    <path d="M10.4589 10.2641C10.1651 10.4333 10 10.6627 10 10.902C10 11.1412 10.1651 11.3706 10.4589 11.5398L18.2169 16.0054L10.4589 20.4711C10.1734 20.6413 10.0154 20.8691 10.019 21.1057C10.0226 21.3422 10.1874 21.5685 10.478 21.7358C10.7686 21.903 11.1617 21.9979 11.5726 22C11.9835 22.002 12.3794 21.9111 12.675 21.7468L21.5411 16.6433C21.8349 16.4741 22 16.2447 22 16.0054C22 15.7662 21.8349 15.5368 21.5411 15.3676L12.675 10.2641C12.3811 10.095 11.9825 10 11.5669 10C11.1514 10 10.7528 10.095 10.4589 10.2641Z" fill="#E8EFE9"></path>
  </symbol>
  <symbol fill="none" xmlns="http://www.w3.org/2000/svg" viewBox="0 0 32 32" id="icon-prev">
    <rect x="32" y="32" width="32" height="32" rx="16" transform="rotate(-180 32 32)" fill="#0B270D"></rect>
    <path d="M21.5411 21.7359C21.8349 21.5667 22 21.3373 22 21.098C22 20.8588 21.8349 20.6294 21.5411 20.4602L13.7831 15.9946L21.5411 11.5289C21.8266 11.3587 21.9846 11.1309 21.981 10.8943C21.9774 10.6578 21.8126 10.4315 21.522 10.2642C21.2314 10.097 20.8383 10.0021 20.4274 10C20.0165 9.99798 19.6206 10.0889 19.325 10.2532L10.4589 15.3567C10.1651 15.5259 10 15.7553 10 15.9946C10 16.2338 10.1651 16.4632 10.4589 16.6324L19.325 21.7359C19.6189 21.905 20.0175 22 20.4331 22C20.8486 22 21.2472 21.905 21.5411 21.7359Z" fill="#E8EFE9"></path>
  </symbol>
</defs>
</svg>


<svg width="0" height="0" class="hidden">
  
</svg>
























